<?xml version="1.0" encoding="UTF-8" standalone="no"?>
<!-- Created with Inkscape (http://www.inkscape.org/) -->

<svg
   xmlns:dc="http://purl.org/dc/elements/1.1/"
   xmlns:cc="http://creativecommons.org/ns#"
   xmlns:rdf="http://www.w3.org/1999/02/22-rdf-syntax-ns#"
   xmlns:svg="http://www.w3.org/2000/svg"
   xmlns="http://www.w3.org/2000/svg"
   xmlns:xlink="http://www.w3.org/1999/xlink"
   xmlns:sodipodi="http://sodipodi.sourceforge.net/DTD/sodipodi-0.dtd"
   xmlns:inkscape="http://www.inkscape.org/namespaces/inkscape"
   width="532.55786"
   height="269.67502"
   id="svg2"
   version="1.1"
   inkscape:version="0.48.4 r9939"
   sodipodi:docname="turtie.svg">
  <defs
     id="defs4">
    <linearGradient
       inkscape:collect="always"
       id="linearGradient5299">
      <stop
         style="stop-color:#ced0d2;stop-opacity:1;"
         offset="0"
         id="stop5301" />
      <stop
         style="stop-color:#ced0d2;stop-opacity:0;"
         offset="1"
         id="stop5303" />
    </linearGradient>
    <linearGradient
       inkscape:collect="always"
       xlink:href="#linearGradient5299"
       id="linearGradient5309"
       x1="144.61583"
       y1="692.25867"
       x2="677.17151"
       y2="692.25867"
       gradientUnits="userSpaceOnUse" />
  </defs>
  <sodipodi:namedview
     id="base"
     pagecolor="#ffffff"
     bordercolor="#666666"
     borderopacity="1.0"
     inkscape:pageopacity="0.0"
     inkscape:pageshadow="2"
     inkscape:zoom="1.990625"
     inkscape:cx="196.33017"
     inkscape:cy="151.56726"
     inkscape:document-units="px"
     inkscape:current-layer="layer1"
     showgrid="false"
     fit-margin-top="0"
     fit-margin-left="0"
     fit-margin-right="0"
     fit-margin-bottom="0"
     inkscape:window-width="1542"
     inkscape:window-height="915"
     inkscape:window-x="1652"
     inkscape:window-y="52"
     inkscape:window-maximized="0" />
  <metadata
     id="metadata7">
    <rdf:RDF>
      <cc:Work
         rdf:about="">
        <dc:format>image/svg+xml</dc:format>
        <dc:type
           rdf:resource="http://purl.org/dc/dcmitype/StillImage" />
        <dc:title></dc:title>
      </cc:Work>
    </rdf:RDF>
  </metadata>
  <g
     inkscape:label="Layer 1"
     inkscape:groupmode="layer"
     id="layer1"
     transform="translate(-144.6117,-557.4242)">
    <path
       style="fill:url(#linearGradient5309);fill-opacity:1;stroke:#ffffff;stroke-width:1px;stroke-linecap:butt;stroke-linejoin:miter;stroke-opacity:1"
       d="m 183.55385,724.23643 c 0,-0.94725 -0.94725,-2.84175 0,-2.84175 0.94724,0 0.6698,3.51155 0,2.84175 -5.95058,0.80155 0.30813,-3.24406 -0.71044,-4.26262 -0.16745,-0.16746 -0.54299,0.16745 -0.71044,0 -0.16745,-0.16746 -0.23681,-0.71044 0,-0.71044 0.23681,0 0,0.94725 0,0.71044 0,-3.28698 0,-3.57567 0,-5.6835 0,-0.1723 0.0229,-2.10846 0,-2.13131 -0.16745,-0.16745 -0.54298,0.16745 -0.71044,0 -0.16745,-0.16745 -0.16745,-0.54299 0,-0.71044 0.16746,-0.16745 0.47363,0 0.71044,0 1.18406,0 2.36812,0 3.55219,0 0.23681,0 0.54298,0.16745 0.71043,0 0.16745,-0.16745 -0.16745,-0.54298 0,-0.71043 0.16745,-0.16746 0.71044,-0.23682 0.71044,0 0,0.23681 -0.71044,0.23681 -0.71044,0 0,-0.33491 0.56067,-0.41089 0.71044,-0.71044 0.10591,-0.21181 -0.16745,-0.54299 0,-0.71044 0.16745,-0.16745 0.54299,0.16745 0.71044,0 0.16745,-0.16745 -0.16745,-0.54298 0,-0.71044 0.3349,-0.3349 1.08597,0.33491 1.42087,0 0.16745,-0.16745 -0.16745,-0.54298 0,-0.71043 1.8945,0 -0.23681,0.23681 0.71044,-0.71044 0.16745,-0.16745 0.60453,0.21181 0.71044,0 0.21181,-0.42362 -0.21182,-0.99725 0,-1.42087 0.1059,-0.21181 0.49862,0.1059 0.71043,0 0.29955,-0.14978 0.47363,-0.47363 0.71044,-0.71044 0.23681,-0.23681 0.56066,-0.41089 0.71044,-0.71044 0.1059,-0.21181 -0.10591,-0.49862 0,-0.71043 0.14977,-0.29955 0.47362,-0.47363 0.71043,-0.71044 0.23682,-0.23681 0.41089,-0.56066 0.71044,-0.71044 0.21181,-0.1059 0.60453,0.21181 0.71044,0 0.21181,-0.42362 -0.14978,-0.97155 0,-1.42087 0.1059,-0.31772 0.56066,-0.41089 0.71043,-0.71044 0.21182,-0.42362 -0.3349,-1.08597 0,-1.42087 0.16746,-0.16745 0.54299,0.16745 0.71044,0 0.16745,-0.16745 0.23681,-0.71044 0,-0.71044 -0.54404,0 -1.8651,2.57554 0.71044,0 0.16745,-0.16745 -0.10591,-0.49863 0,-0.71044 0.48349,-0.96699 0.93738,-0.45388 1.42087,-1.42087 0.21181,-0.42362 -0.3349,-1.08597 0,-1.42087 0.16745,-0.16746 0.54299,0.16745 0.71044,0 0.16745,-0.16746 -0.16745,-0.54299 0,-0.71044 0.16745,-0.16745 0.54298,0.16745 0.71044,0 0.3349,-0.3349 -0.33491,-1.08597 0,-1.42088 0.16745,-0.16745 0.54298,0.16746 0.71043,0 0.33491,-0.3349 -0.3349,-1.08597 0,-1.42087 0.16745,-0.16745 0.54299,0.16745 0.71044,0 0.35522,-0.35522 -0.35522,-1.77609 0,-2.13131 0.94725,-0.94725 0.71044,1.18406 0.71044,-0.71044 0,-0.23681 0,-0.47362 0,-0.71043 0,-0.23682 -0.16746,-0.54299 0,-0.71044 1.46992,-1.46992 -0.0575,2.24623 1.42087,-0.71044 0.21181,-0.42362 -0.21181,-0.99725 0,-1.42087 0.14977,-0.29955 0.56066,-0.41089 0.71044,-0.71044 0.21181,-0.42362 -0.33491,-1.08597 0,-1.42087 0.16745,-0.16745 0.54298,0.16745 0.71043,0 0.35522,-0.35522 -0.35521,-1.77609 0,-2.13131 1.46992,-1.46992 -0.0575,2.24623 1.42088,-0.71044 0.14084,-0.28168 -0.14524,-1.98607 0,-2.13131 0.16745,-0.16745 0.54298,0.16745 0.71043,0 0.14524,-0.14524 -0.14084,-1.84963 0,-2.13131 0.14978,-0.29955 0.56067,-0.41089 0.71044,-0.71044 0.21181,-0.42362 -0.3349,-1.08597 0,-1.42087 0.16745,-0.16745 0.54299,0.16745 0.71044,0 0.16745,-0.16745 -0.16745,-0.54299 0,-0.71044 0.16745,-0.16745 0.54298,0.16745 0.71044,0 0.3349,-0.3349 -0.33491,-1.08597 0,-1.42087 0.16745,-0.16746 0.54298,0.16745 0.71043,0 0.35522,-0.35522 -0.35522,-1.7761 0,-2.13131 0.16745,-0.16746 0.54299,0.16745 0.71044,0 0.16745,-0.16746 -0.10591,-0.49863 0,-0.71044 0.14977,-0.29955 0.56066,-0.41089 0.71044,-0.71044 0.21181,-0.42362 -0.33491,-1.08597 0,-1.42087 0.16745,-0.16745 0.47362,0 0.71043,0 0,-0.23681 -0.16745,-0.54299 0,-0.71044 0.16746,-0.16745 0.54299,0.16745 0.71044,0 0.35522,-0.35522 -0.35522,-1.77609 0,-2.13131 0.16745,-0.16745 0.54299,0.16745 0.71044,0 0.35522,-0.35522 -0.35522,-1.77609 0,-2.13131 0.16745,-0.16745 0.54298,0.16745 0.71043,0 0.16746,-0.16745 -0.16745,-0.54299 0,-0.71044 0.16746,-0.16745 0.54299,0.16745 0.71044,0 0.3349,-0.3349 -0.3349,-1.08597 0,-1.42087 0.16745,-0.16745 0.54299,0.16745 0.71044,0 0.3349,-0.33491 -0.3349,-1.08597 0,-1.42088 0.16745,-0.16745 0.54298,0.16746 0.71044,0 0.16745,-0.16745 -0.16746,-0.54298 0,-0.71043 0.16745,-0.16745 0.54298,0.16745 0.71043,0 0.33491,-0.33491 -0.3349,-1.08597 0,-1.42088 0.16745,-0.16745 0.54299,0.16745 0.71044,0 0.3349,-0.3349 -0.3349,-1.08597 0,-1.42087 0.16745,-0.16745 0.54298,0.16745 0.71044,0 0.35521,-0.35522 -0.35522,-1.77609 0,-2.13131 0.16745,-0.16745 0.54298,0.16745 0.71043,0 0.16745,-0.16745 -0.16745,-0.54299 0,-0.71044 0.16745,-0.16745 0.54299,0.16745 0.71044,0 0.16745,-0.16745 -0.16745,-0.54298 0,-0.71044 0.16745,-0.16745 0.54299,0.16746 0.71044,0 0.35522,-0.35521 -0.35522,-1.77609 0,-2.13131 0.16745,-0.16745 0.54298,0.16746 0.71043,0 0.33491,-0.3349 -0.21181,-0.99725 0,-1.42087 0.14978,-0.29955 0.56067,-0.41089 0.71044,-0.71044 0.10591,-0.21181 -0.16745,-0.54298 0,-0.71043 1.8945,0 -0.23681,0.23681 0.71044,-0.71044 0.16745,-0.16745 0.54298,0.16745 0.71043,0 0.33491,-0.3349 -0.3349,-1.08597 0,-1.42087 0.16746,-0.16746 0.54299,0.16745 0.71044,0 0.16745,-0.16746 -0.16745,-0.54299 0,-0.71044 0.16745,-0.16745 0.54299,0.16745 0.71044,0 0.16745,-0.16745 -0.16745,-0.54299 0,-0.71044 0.3349,-0.3349 1.08597,0.3349 1.42087,0 0.33491,-0.3349 -0.21181,-0.99725 0,-1.42087 0.14978,-0.29955 0.56067,-0.41089 0.71044,-0.71044 0.10591,-0.21181 -0.16745,-0.54299 0,-0.71044 0.16745,-0.16745 0.54299,0.16745 0.71044,0 0.3349,-0.3349 -0.33491,-1.08597 0,-1.42087 0.16745,-0.16745 0.54298,0.16745 0.71043,0 0.16746,-0.16745 -0.16745,-0.54299 0,-0.71044 0.16746,-0.16745 0.54299,0.16745 0.71044,0 0.16745,-0.16745 -0.16745,-0.54298 0,-0.71043 0.16745,-0.16746 0.54299,0.16745 0.71044,0 0.3349,-0.33491 -0.33491,-1.08598 0,-1.42088 0.16745,-0.16745 0.54298,0.16745 0.71043,0 0.33491,-0.3349 -0.3349,-1.08597 0,-1.42087 0.16746,-0.16745 0.49863,0.1059 0.71044,0 1.43685,-0.71842 0.22782,-1.64869 0.71044,-2.13131 0.16745,-0.16745 0.54298,0.16745 0.71044,0 0.16745,-0.16745 -0.16746,-0.54299 0,-0.71044 0.16745,-0.16745 0.54298,0.16745 0.71043,0 0.33491,-0.3349 -0.21181,-0.99725 0,-1.42087 1.47834,-2.95667 -0.049,0.75948 1.42088,-0.71044 0.16745,-0.16745 -0.10591,-0.49863 0,-0.71044 0.14977,-0.29954 0.56066,-0.41089 0.71043,-0.71043 0.10591,-0.21182 -0.16745,-0.54299 0,-0.71044 0.16745,-0.16745 0.54299,0.16745 0.71044,0 0.16745,-0.16745 -0.16745,-0.54299 0,-0.71044 0.16745,-0.16745 0.54299,0.16745 0.71044,0 0.3349,-0.3349 -0.33491,-1.08597 0,-1.42087 0.16745,-0.16745 0.47362,0 0.71043,0 0,-0.23682 -0.16745,-0.54299 0,-0.71044 0.16746,-0.16745 0.54299,0.16745 0.71044,0 0.16745,-0.16745 -0.16745,-0.54299 0,-0.71044 0.16745,-0.16745 0.54299,0.16745 0.71044,0 0.16745,-0.16745 -0.16745,-0.54298 0,-0.71043 0.16745,-0.16746 0.54298,0.16745 0.71043,0 0.16746,-0.16746 -0.1059,-0.49863 0,-0.71044 0.14978,-0.29955 0.56067,-0.41089 0.71044,-0.71044 0.10591,-0.21181 -0.16745,-0.54298 0,-0.71043 0.16745,-0.16746 0.54299,0.16745 0.71044,0 0.16745,-0.16746 -0.16745,-0.54299 0,-0.71044 0.16745,-0.16745 0.54298,0.16745 0.71044,0 0.16745,-0.16745 -0.16746,-0.54299 0,-0.71044 0.16745,-0.16745 0.54298,0.16745 0.71043,0 0.33491,-0.3349 -0.3349,-1.08597 0,-1.42087 0.16745,-0.16745 0.54299,0.16745 0.71044,0 0.16745,-0.16745 0,-0.47363 0,-0.71044 0.23681,0 0.49863,0.10591 0.71044,0 2.95666,-1.47833 -0.75949,0.049 0.71043,-1.42087 0.16746,-0.16745 0.47363,0 0.71044,0 0,-0.23682 -0.10591,-0.49863 0,-0.71044 1.47833,-2.95667 -0.049,0.75948 1.42087,-0.71044 0.16746,-0.16745 -0.16745,-0.54298 0,-0.71043 0.16746,-0.16746 0.54299,0.16745 0.71044,0 0.16745,-0.16746 -0.1059,-0.49863 0,-0.71044 0.14977,-0.29955 0.47363,-0.47363 0.71044,-0.71044 0.23681,-0.23681 0.41089,-0.56066 0.71044,-0.71043 0.21181,-0.10591 0.54298,0.16745 0.71043,0 0.16745,-0.16746 -0.16745,-0.54299 0,-0.71044 0.16745,-0.16745 0.54299,0.16745 0.71044,0 0.16745,-0.16745 -0.16745,-0.54299 0,-0.71044 0.37443,-0.37443 1.04644,-0.336 1.42087,-0.71044 0.16745,-0.16745 -0.16745,-0.54298 0,-0.71043 0.33491,-0.33491 1.08597,0.3349 1.42088,0 0.16745,-0.16745 -0.16745,-0.54299 0,-0.71044 0.16745,-0.16745 0.54298,0.16745 0.71043,0 0.33491,-0.3349 -0.3349,-1.08597 0,-1.42087 0.23693,-0.23693 1.18395,0.23692 1.42088,0 0.16745,-0.16746 -0.16745,-0.54299 0,-0.71044 0.16745,-0.16745 0.54298,0.16745 0.71043,0 0.16746,-0.16745 -0.1059,-0.49863 0,-0.71044 0.14978,-0.29954 0.56067,-0.41089 0.71044,-0.71043 0.10591,-0.21182 -0.16745,-0.54299 0,-0.71044 0.16745,-0.16745 0.49863,0.1059 0.71044,0 0.29955,-0.14977 0.47362,-0.47363 0.71044,-0.71044 0.23681,-0.23681 0.56066,-0.41089 0.71043,-0.71044 0.10591,-0.21181 -0.16745,-0.54298 0,-0.71043 0.16745,-0.16745 0.54299,0.16745 0.71044,0 0.3349,-0.33491 -0.3349,-1.08597 0,-1.42088 0.3349,-0.3349 1.08597,0.33491 1.42087,0 0.16746,-0.16745 -0.16745,-0.54298 0,-0.71043 0.16746,-0.16745 0.54299,0.16745 0.71044,0 0.16745,-0.16745 -0.16745,-0.54299 0,-0.71044 0.3349,-0.3349 1.08597,0.3349 1.42087,0 0.16746,-0.16745 -0.16745,-0.54299 0,-0.71044 0.16746,-0.16745 0.54299,0.16745 0.71044,0 0.16745,-0.16745 -0.16745,-0.54298 0,-0.71043 0.16745,-0.16746 0.54299,0.16745 0.71044,0 0.16745,-0.16746 0,-0.47363 0,-0.71044 0.23681,0 0.54298,0.16745 0.71044,0 0.16745,-0.16745 -0.16746,-0.54299 0,-0.71044 0.3349,-0.3349 1.08597,0.33491 1.42087,0 0.23634,-0.23634 -0.23634,-1.18453 0,-1.42087 0.3349,-0.3349 1.08597,0.3349 1.42087,0 0.16745,-0.16745 -0.16745,-0.54299 0,-0.71044 0.16745,-0.16745 0.54299,0.16745 0.71044,0 0.16745,-0.16745 -0.16745,-0.54298 0,-0.71044 0.16745,-0.16745 0.49863,0.10591 0.71044,0 0.59909,-0.29954 0.82178,-1.12132 1.42087,-1.42087 0.21181,-0.10591 0.47363,0 0.71044,0 0.23681,-0.23681 0.41089,-0.56066 0.71043,-0.71044 0.21182,-0.1059 0.54299,0.16746 0.71044,0 0.16745,-0.16745 -0.16745,-0.54298 0,-0.71043 0.16745,-0.16746 0.54299,0.16745 0.71044,0 1.46992,-1.46992 -2.24623,0.0575 0.71044,-1.42088 0.42362,-0.21181 1.08597,0.33491 1.42087,0 0.16745,-0.16745 -0.16745,-0.54298 0,-0.71043 0.16745,-0.16746 0.54298,0.16745 0.71044,0 0.16745,-0.16746 -0.16746,-0.54299 0,-0.71044 0.3349,-0.3349 1.08597,0.3349 1.42087,0 0.16745,-0.16745 -0.16745,-0.54299 0,-0.71044 0.16745,-0.16745 0.54299,0.16745 0.71044,0 0.16745,-0.16745 -0.16745,-0.54298 0,-0.71044 0.16745,-0.16745 0.49862,0.10591 0.71043,0 0.29955,-0.14977 0.41089,-0.56066 0.71044,-0.71043 0.42362,-0.21181 1.08597,0.3349 1.42088,0 0.16745,-0.16745 -0.16746,-0.54299 0,-0.71044 0.16745,-0.16745 0.54298,0.16745 0.71043,0 0.16745,-0.16745 -0.16745,-0.54298 0,-0.71044 0.16745,-0.16745 0.54299,0.16746 0.71044,0 0.16745,-0.16745 -0.16745,-0.54298 0,-0.71043 0.3349,-0.33491 1.08597,0.3349 1.42087,0 0.16745,-0.16745 -0.16745,-0.54299 0,-0.71044 0.33491,-0.3349 0.99725,0.21181 1.42088,0 0.29954,-0.14977 0.41089,-0.56066 0.71043,-0.71044 0.21182,-0.1059 0.49863,0.10591 0.71044,0 2.95667,-1.47833 -0.75948,0.0491 0.71044,-1.42087 0.35522,-0.35522 1.77609,0.35522 2.13131,0 0.16745,-0.16745 -0.16745,-0.54299 0,-0.71044 0.3349,-0.3349 1.08597,0.33491 1.42087,0 0.16745,-0.16745 -0.16745,-0.54298 0,-0.71043 0.33491,-0.33491 1.08597,0.3349 1.42088,0 0.3349,-0.33491 -0.33491,-1.08598 0,-1.42088 0.3349,-0.3349 0.99725,0.21181 1.42087,0 0.29955,-0.14977 0.41089,-0.56066 0.71044,-0.71044 0.21181,-0.1059 0.49862,0.10591 0.71043,0 0.29955,-0.14977 0.41089,-0.56066 0.71044,-0.71043 0.21181,-0.10591 0.54299,0.16745 0.71044,0 0.16745,-0.16745 -0.16745,-0.54299 0,-0.71044 0.16745,-0.16745 0.54298,0.16745 0.71044,0 0.16745,-0.16745 -0.16746,-0.54298 0,-0.71044 0.17095,-0.17095 2.67079,0.17096 2.84174,0 0.16745,-0.16745 -0.16745,-0.54298 0,-0.71043 0.16745,-0.16745 0.49863,0.1059 0.71044,0 0.29955,-0.14978 0.41089,-0.56067 0.71044,-0.71044 0.28168,-0.14084 1.98607,0.14524 2.13131,0 0.16745,-0.16745 -0.16745,-0.54299 0,-0.71044 0.16745,-0.16745 0.54298,0.16745 0.71043,0 0.16746,-0.16745 -0.21181,-0.60453 0,-0.71043 0.30195,-0.15098 2.95684,0 3.55219,0 0.23681,0 0.54298,0.16745 0.71044,0 0.16745,-0.16746 -0.16746,-0.54299 0,-0.71044 0.3349,-0.3349 0.99725,0.21181 1.42087,0 0.29955,-0.14977 0.41089,-0.56066 0.71044,-0.71044 0.42362,-0.21181 1.08597,0.33491 1.42087,0 0.16745,-0.16745 0.23681,-0.71044 0,-0.71044 -0.3349,0 -0.71044,1.04535 -0.71044,0.71044 0,-0.52953 0.33601,-1.04644 0.71044,-1.42087 0.15189,-0.15189 2.45007,0.13056 2.84175,0 0.50235,-0.16745 0.91852,-0.54299 1.42087,-0.71044 0.4826,-0.16087 4.05669,0 4.97306,0 0.23681,0 0.47363,0 0.71044,0 0.23681,0 0.54298,0.16745 0.71044,0 0.16745,-0.16745 -0.16746,-0.54298 0,-0.71044 0.3349,-0.3349 0.99725,0.21182 1.42087,0 0.29955,-0.14977 0.41089,-0.56066 0.71044,-0.71043 0.28168,-0.14084 1.98607,0.14524 2.13131,0 0.16745,-0.16745 -0.16745,-0.54299 0,-0.71044 0.24937,-0.24938 3.06146,0.24536 3.55218,0 0.29955,-0.14977 0.41089,-0.56066 0.71044,-0.71044 0.28168,-0.14084 1.98607,0.14524 2.13131,0 0.16745,-0.16745 -0.16745,-0.54298 0,-0.71043 0.21998,-0.21999 3.3322,0.21998 3.55218,0 0.16746,-0.16746 -0.16745,-0.54299 0,-0.71044 0.15189,-0.15189 2.45007,0.13056 2.84175,0 0.50236,-0.16745 0.91852,-0.54299 1.42088,-0.71044 0.44932,-0.14977 0.94725,0 1.42087,0 1.18406,0 2.36812,0 3.55218,0 0.23682,0 0.47363,0 0.71044,0 0.23681,0 0.49863,0.10591 0.71044,0 0.29955,-0.14977 0.41089,-0.56066 0.71044,-0.71043 0.21181,-0.10591 0.54298,0.16745 0.71043,0 0.16745,-0.16746 -0.16745,-0.54299 0,-0.71044 0.17096,-0.17095 2.6708,0.17095 2.84175,0 0.16745,-0.16745 -0.16745,-0.54299 0,-0.71044 0.0322,-0.0322 3.21722,0 3.55219,0 1.89449,0 3.78899,0 5.68349,0 0.23681,0 0.54299,0.16745 0.71044,0 0.16745,-0.16745 -0.16745,-0.54298 0,-0.71044 0.16745,-0.16745 0.47362,0 0.71043,0 0.23682,0 0.47363,0 0.71044,0 1.8945,0 3.789,0 5.6835,0 0.23681,0 0.54298,0.16746 0.71043,0 0.16746,-0.16745 -0.16745,-0.54298 0,-0.71043 0.16746,-0.16745 0.47363,0 0.71044,0 0.23681,0 0.47363,0 0.71044,0 1.8945,0 3.789,0 5.68349,0 2.60494,0 5.20987,0 7.81481,0 0.3715,0 2.65494,0.0934 2.84175,0 0.29954,-0.14978 0.41089,-0.56067 0.71044,-0.71044 0.21621,-0.1081 1.81136,0 2.13131,0 1.42087,0 2.84174,0 4.26262,0 4.97306,0 9.94612,0 14.91917,0 3.55219,0 7.10437,0 10.65656,0 0.23681,0 0.47362,0 0.71043,0 0.23682,0 0.54299,-0.16745 0.71044,0 0.16745,0.16745 -0.16745,0.54299 0,0.71044 0.23693,0.23693 1.18395,-0.23693 1.42088,0 0.16745,0.16745 -0.16746,0.54298 0,0.71043 0.16745,0.16746 0.47362,0 0.71043,0 0.23682,0 0.47363,0 0.71044,0 0.23681,0 0.47362,0 0.71044,0 0.23681,0 0.54298,-0.16745 0.71043,0 0.16746,0.16746 -0.16745,0.54299 0,0.71044 0.17096,0.17095 2.6708,-0.17095 2.84175,0 0.16745,0.16745 -0.16745,0.54299 0,0.71044 0.16745,0.16745 0.54299,-0.16745 0.71044,0 0.16745,0.16745 -0.16745,0.54298 0,0.71044 0.14524,0.14523 1.84963,-0.14085 2.13131,0 0.29955,0.14977 0.47362,0.47362 0.71044,0.71043 0.47362,0 0.99725,-0.21181 1.42087,0 0.21181,0.10591 -0.16745,0.54299 0,0.71044 0.16745,0.16745 0.49863,-0.10591 0.71044,0 2.95667,1.47833 -0.75949,-0.0491 0.71043,1.42087 0.17096,0.17096 2.6708,-0.17095 2.84175,0 0.16745,0.16745 -0.16745,0.54299 0,0.71044 0.33491,0.3349 1.08597,-0.3349 1.42088,0 0.16745,0.16745 -0.16746,0.54299 0,0.71044 0.16745,0.16745 0.54298,-0.16745 0.71043,0 0.16745,0.16745 -0.16745,0.54298 0,0.71043 0.16745,0.16746 0.49863,-0.1059 0.71044,0 0.29955,0.14978 0.41089,0.56067 0.71044,0.71044 0.42362,0.21181 1.08597,-0.3349 1.42087,0 0.16745,0.16745 -0.16745,0.54299 0,0.71044 0.35522,0.35522 1.77609,-0.35522 2.13131,0 0.16745,0.16745 -0.16745,0.54298 0,0.71043 0.16745,0.16746 0.54299,-0.16745 0.71044,0 0.16745,0.16746 -0.16745,0.54299 0,0.71044 0.3349,0.33491 0.99725,-0.21181 1.42087,0 0.29955,0.14978 0.41089,0.56067 0.71044,0.71044 0.21181,0.1059 0.54298,-0.16745 0.71044,0 0.16745,0.16745 -0.16746,0.54298 0,0.71044 0.3349,0.3349 0.99725,-0.21182 1.42087,0 0.29955,0.14977 0.41089,0.56066 0.71044,0.71043 0.42362,0.21181 1.08597,-0.3349 1.42087,0 1.46992,1.46992 -2.24623,-0.0575 0.71044,1.42088 0.42362,0.21181 1.08597,-0.33491 1.42087,0 0.16745,0.16745 -0.16745,0.54298 0,0.71043 0.16745,0.16746 0.49863,-0.1059 0.71044,0 2.35622,2.35623 -0.66981,-0.3349 1.42087,0.71044 0.5991,0.29955 0.82178,1.12133 1.42088,1.42087 0.21181,0.10591 0.47362,0 0.71043,0 0.23682,0.23682 0.41089,0.56067 0.71044,0.71044 0.42362,0.21181 1.08597,-0.3349 1.42087,0 0.16746,0.16745 -0.16745,0.54299 0,0.71044 0.16746,0.16745 0.54299,-0.16745 0.71044,0 0.16745,0.16745 -0.16745,0.54298 0,0.71044 0.16745,0.16745 0.49863,-0.10591 0.71044,0 0.29954,0.14977 0.41089,0.56066 0.71044,0.71043 0.42362,0.21181 1.08597,-0.3349 1.42087,0 0.16745,0.16745 -0.16745,0.54299 0,0.71044 0.3349,0.3349 0.99725,-0.21181 1.42087,0 0.29955,0.14977 0.41089,0.56066 0.71044,0.71044 0.21181,0.1059 0.54299,-0.16746 0.71044,0 0.16745,0.16745 -0.16745,0.54298 0,0.71043 0.16745,0.16745 0.49862,-0.1059 0.71043,0 0.29955,0.14978 0.41089,0.56067 0.71044,0.71044 0.21181,0.10591 0.54299,-0.16745 0.71044,0 1.46992,1.46992 -2.24623,-0.0575 0.71043,1.42087 0.42363,0.21182 1.08598,-0.3349 1.42088,0 0.16745,0.16746 -0.16745,0.54299 0,0.71044 0.16745,0.16745 0.54298,-0.16745 0.71044,0 0.16745,0.16745 -0.16746,0.54299 0,0.71044 0.16745,0.16745 0.54298,-0.16745 0.71043,0 0.16745,0.16745 -0.16745,0.54298 0,0.71043 0.33491,0.33491 1.08597,-0.3349 1.42088,0 0.16745,0.16746 -0.16746,0.54299 0,0.71044 0.23634,0.23634 1.18453,-0.23634 1.42087,0 0.16745,0.16745 -0.16745,0.54299 0,0.71044 0.3349,0.3349 1.08597,-0.3349 1.42087,0 0.16746,0.16745 -0.16745,0.54298 0,0.71044 1.8945,0 -0.23681,-0.23682 0.71044,0.71043 0.14524,0.14524 1.84963,-0.14084 2.13131,0 0.29955,0.14978 0.41089,0.56067 0.71044,0.71044 0.21181,0.10591 0.54298,-0.16745 0.71044,0 0.16745,0.16745 -0.16746,0.54298 0,0.71044 1.89449,0 -0.23682,-0.23682 0.71043,0.71043 1.46992,1.46992 -0.0575,-2.24623 1.42088,0.71044 0.1059,0.21181 -0.16745,0.54299 0,0.71044 0.3349,0.3349 1.08597,-0.33491 1.42087,0 0.23664,0.23663 -0.23663,1.18424 0,1.42087 0.23693,0.23693 1.18395,-0.23693 1.42087,0 0.16746,0.16745 -0.16745,0.54299 0,0.71044 0.33491,0.3349 1.08598,-0.3349 1.42088,0 0.16745,0.16745 -0.16745,0.54298 0,0.71044 0.3349,0.3349 1.08597,-0.33491 1.42087,0 0.16745,0.16745 -0.16745,0.54298 0,0.71043 0.33491,0.33491 1.08597,-0.3349 1.42088,0 0.23553,0.23553 -0.23553,1.18535 0,1.42088 0.3349,0.3349 1.08597,-0.33491 1.42087,0 0.16745,0.16745 -0.10591,0.49862 0,0.71043 0.14977,0.29955 0.56066,0.41089 0.71044,0.71044 0.1059,0.21181 -0.16745,0.54299 0,0.71044 0.16745,0.16745 0.54298,-0.16745 0.71043,0 1.46992,1.46992 -2.24623,-0.0575 0.71044,1.42087 0.42362,0.21181 1.08597,-0.3349 1.42088,0 0.16745,0.16745 -0.16746,0.54299 0,0.71044 0.16745,0.16745 0.54298,-0.16745 0.71043,0 0.16745,0.16745 -0.16745,0.54298 0,0.71043 0.33491,0.33491 1.08597,-0.3349 1.42088,0 0.16745,0.16746 -0.10591,0.49863 0,0.71044 1.47833,2.95667 -0.0491,-0.75948 1.42087,0.71044 0.16745,0.16745 0,0.47362 0,0.71044 0.23681,0 0.49863,-0.10591 0.71044,0 2.95667,1.47833 -0.75949,-0.049 0.71043,1.42087 0.33491,0.3349 1.08597,-0.3349 1.42088,0 0.16745,0.16745 -0.16745,0.54298 0,0.71044 0.16745,0.16745 0.49862,-0.10591 0.71043,0 0.29955,0.14977 0.47363,0.47362 0.71044,0.71043 0.23681,0.23682 0.56067,0.41089 0.71044,0.71044 0.1059,0.21181 -0.16745,0.54299 0,0.71044 0.16745,0.16745 0.54298,-0.16745 0.71044,0 0.16745,0.16745 -0.16746,0.54298 0,0.71043 0.35521,0.35522 1.77609,-0.35521 2.13131,0 0.16745,0.16746 -0.16746,0.54299 0,0.71044 0.16745,0.16745 0.54298,-0.16745 0.71043,0 0.16745,0.16745 -0.16745,0.54299 0,0.71044 0.16745,0.16745 0.54299,-0.16745 0.71044,0 0.16745,0.16745 -0.16745,0.54298 0,0.71044 0.16745,0.16745 0.54299,-0.16746 0.71044,0 0.16745,0.16745 -0.16745,0.54298 0,0.71043 0.16745,0.16745 0.54298,-0.16745 0.71043,0 0.16746,0.16745 -0.16745,0.54299 0,0.71044 0.16746,0.16745 0.54299,-0.16745 0.71044,0 0.16745,0.16745 -0.16745,0.54298 0,0.71044 0.16745,0.16745 0.54299,-0.16746 0.71044,0 0.16745,0.16745 -0.16745,0.54298 0,0.71043 0.16745,0.16745 0.54298,-0.16745 0.71043,0 0.16746,0.16745 -0.16745,0.54299 0,0.71044 0.16746,0.16745 0.54299,-0.16745 0.71044,0 0.16745,0.16745 -0.16745,0.54299 0,0.71044 0.16745,0.16745 0.54299,-0.16745 0.71044,0 0.16745,0.16745 -0.16745,0.54298 0,0.71043 0.16745,0.16746 0.54298,-0.16745 0.71044,0 1.46992,1.46992 -2.24624,-0.0575 0.71043,1.42088 1.8945,0 -0.23681,-0.23681 0.71044,0.71043 0.16745,0.16746 0.54299,-0.16745 0.71044,0 0.16745,0.16746 -0.16745,0.54299 0,0.71044 0.16745,0.16745 0.49862,-0.1059 0.71043,0 0.5991,0.29955 0.82178,1.12133 1.42088,1.42088 0.21181,0.1059 0.54298,-0.16746 0.71043,0 0.16746,0.16745 -0.16745,0.54298 0,0.71043 0.16746,0.16745 0.54299,-0.16745 0.71044,0 0.16745,0.16745 -0.16745,0.54299 0,0.71044 0.16745,0.16745 0.49863,-0.10591 0.71044,0 0.29954,0.14977 0.41089,0.56066 0.71044,0.71044 0.21181,0.1059 0.54298,-0.16746 0.71043,0 0.16745,0.16745 -0.16745,0.54298 0,0.71043 0.35522,0.35522 1.77609,-0.35522 2.13131,0 0.16745,0.16745 -0.1059,0.49863 0,0.71044 0.71843,1.43685 1.6487,0.22782 2.13131,0.71044 0.16746,0.16745 -0.16745,0.54298 0,0.71043 0.16746,0.16746 0.54299,-0.16745 0.71044,0 0.16745,0.16746 -0.16745,0.54299 0,0.71044 0.16745,0.16745 0.54299,-0.16745 0.71044,0 0.16745,0.16745 -0.16745,0.54299 0,0.71044 0.16745,0.16745 0.54298,-0.16745 0.71043,0 0.16746,0.16745 -0.16745,0.54298 0,0.71044 0.33491,0.3349 0.99726,-0.21182 1.42088,0 1.57081,0.7854 0.22046,0.44092 0.71044,1.42087 0.14977,0.29955 0.56066,0.41089 0.71043,0.71044 0.10591,0.21181 -0.16745,0.54298 0,0.71043 0.16745,0.16745 0.54299,-0.16745 0.71044,0 0.16745,0.16745 -0.16745,0.54299 0,0.71044 0.3349,0.3349 1.08597,-0.3349 1.42087,0 0.16746,0.16745 -0.16745,0.54299 0,0.71044 0.16746,0.16745 0.54299,-0.16745 0.71044,0 0.16745,0.16745 -0.16745,0.54298 0,0.71043 0.16745,0.16746 0.54299,-0.16745 0.71044,0 0.16745,0.16746 -0.16745,0.54299 0,0.71044 0.3349,0.3349 1.08597,-0.3349 1.42087,0 0.3349,0.3349 -0.3349,1.08597 0,1.42087 0.16745,0.16746 0.54299,-0.16745 0.71044,0 0.16745,0.16746 -0.16745,0.54299 0,0.71044 0.16745,0.16745 0.54298,-0.16745 0.71044,0 0.16745,0.16745 -0.16746,0.54299 0,0.71044 1.46991,1.46992 -0.0575,-2.24623 1.42087,0.71044 0.1059,0.21181 -0.16745,0.54298 0,0.71043 0.16745,0.16745 0.54298,-0.16745 0.71044,0 0.16745,0.16745 -0.16746,0.54299 0,0.71044 0.16745,0.16745 0.49862,-0.10591 0.71043,0 0.29955,0.14977 0.41089,0.56066 0.71044,0.71044 0.21181,0.1059 0.54299,-0.16746 0.71044,0 0.16745,0.16745 -0.16745,0.54298 0,0.71043 0.16745,0.16745 0.54298,-0.16745 0.71043,0 0.33491,0.33491 -0.3349,1.08597 0,1.42088 0.16746,0.16745 0.54299,-0.16745 0.71044,0 0.16745,0.16745 -0.16745,0.54298 0,0.71043 0.16745,0.16746 0.54299,-0.16745 0.71044,0 0.16745,0.16746 -0.16745,0.54299 0,0.71044 0.16745,0.16745 0.54298,-0.16745 0.71043,0 0.16746,0.16745 -0.1059,0.49863 0,0.71044 0.29955,0.59909 1.12133,0.82178 1.42088,1.42087 0.21181,0.42362 -0.3349,1.08597 0,1.42088 0.16745,0.16745 0.54298,-0.16746 0.71044,0 0.16745,0.16745 -0.16746,0.54298 0,0.71043 0.16745,0.16745 0.54298,-0.16745 0.71043,0 0.33491,0.33491 -0.3349,1.08597 0,1.42088 0.16745,0.16745 0.54299,-0.16745 0.71044,0 0.3349,0.3349 -0.3349,1.08597 0,1.42087 0.16745,0.16745 0.54298,-0.16745 0.71044,0 0.16745,0.16745 -0.16746,0.54299 0,0.71044 0.16745,0.16745 0.54298,-0.16745 0.71043,0 0.16746,0.16745 -0.1059,0.49862 0,0.71043 0.14978,0.29955 0.47363,0.47363 0.71044,0.71044 0.23681,0.23681 0.41089,0.56067 0.71044,0.71044 0.21181,0.1059 0.54298,-0.16745 0.71043,0 0.33491,0.3349 -0.3349,1.08597 0,1.42087 0.16746,0.16745 0.54299,-0.16745 0.71044,0 0.16745,0.16745 -0.16745,0.54299 0,0.71044 1.46992,1.46992 -0.0575,-2.24623 1.42088,0.71044 0.1059,0.21181 -0.16746,0.54298 0,0.71043 0.3349,0.33491 1.08597,-0.3349 1.42087,0 0.16745,0.16745 -0.16745,0.54299 0,0.71044 0.16745,0.16745 0.54298,-0.16745 0.71044,0 0.16745,0.16745 -0.10591,0.49863 0,0.71044 0.14977,0.29954 0.47362,0.47362 0.71043,0.71043 0.23682,0.23682 0.41089,0.56067 0.71044,0.71044 1.8945,0 -0.23681,-0.23681 0.71044,0.71044 0.3349,0.3349 1.08597,-0.33491 1.42087,0 0.16745,0.16745 -0.16745,0.54298 0,0.71043 0.16745,0.16746 0.54299,-0.16745 0.71044,0 0.16745,0.16746 -0.16745,0.54299 0,0.71044 0.16745,0.16745 0.54298,-0.16745 0.71043,0 0.16746,0.16745 -0.16745,0.54299 0,0.71044 0.33491,0.3349 1.08598,-0.3349 1.42088,0 0.16745,0.16745 -0.16745,0.54298 0,0.71044 0.16745,0.16745 0.54298,-0.16746 0.71044,0 0.16745,0.16745 -0.16746,0.54298 0,0.71043 0.16745,0.16745 0.54298,-0.16745 0.71043,0 0.33491,0.33491 -0.3349,1.08597 0,1.42088 0.33491,0.3349 1.08597,-0.33491 1.42088,0 0.16745,0.16745 -0.16746,0.54298 0,0.71043 0.16745,0.16746 0.54298,-0.16745 0.71043,0 0.16746,0.16746 -0.16745,0.54299 0,0.71044 0.16746,0.16745 0.54299,-0.16745 0.71044,0 0.3349,0.3349 -0.3349,1.08597 0,1.42087 0.23634,0.23635 1.18453,-0.23634 1.42087,0 0.16746,0.16746 -0.16745,0.54299 0,0.71044 0.16746,0.16745 0.54299,-0.16745 0.71044,0 0.3349,0.3349 -0.3349,1.08597 0,1.42088 0.16745,0.16745 0.71044,-0.23682 0.71044,0 0,0.21228 -2.35622,-0.46768 0,0.71043 0.21181,0.10591 0.49862,-0.1059 0.71044,0 0.29954,0.14978 0.41089,0.56067 0.71043,0.71044 0.21181,0.1059 0.71044,-0.23681 0.71044,0 0,0.23681 -0.94725,0 -0.71044,0 1.18406,0 2.36813,0 3.55219,0 1.65768,0 3.31537,0 4.97306,0 0.31995,0 1.9151,0.1081 2.13131,0 2.95666,-1.47833 -0.75949,0.049 0.71043,-1.42087 0.16745,-0.16746 0.54299,0.16745 0.71044,0 0.16745,-0.16746 -0.16745,-0.54299 0,-0.71044 0.23634,-0.23634 1.18453,0.23634 1.42087,0 0.16746,-0.16745 -0.16745,-0.54299 0,-0.71044 0.33491,-0.3349 0.99726,0.21181 1.42088,0 0.29954,-0.14977 0.41089,-0.56066 0.71044,-0.71044 0.21181,-0.1059 0.54298,0.16746 0.71043,0 0.16745,-0.16745 -0.16745,-0.54298 0,-0.71043 0.33491,-0.33491 0.99725,0.21181 1.42088,0 0.59909,-0.29955 0.82178,-1.12133 1.42087,-1.42088 0.21181,-0.1059 0.49863,0.10591 0.71044,0 0.59909,-0.29954 0.82178,-1.12132 1.42087,-1.42087 0.21181,-0.10591 0.54299,0.16745 0.71044,0 0.16745,-0.16745 -0.16745,-0.54299 0,-0.71044 0.16745,-0.16745 0.49862,0.10591 0.71043,0 0.29955,-0.14977 0.4109,-0.56066 0.71044,-0.71043 0.42362,-0.21182 1.08597,0.3349 1.42088,0 0.16745,-0.16746 -0.16746,-0.54299 0,-0.71044 0.3349,-0.3349 0.99725,0.21181 1.42087,0 2.95667,-1.47834 -0.75948,0.049 0.71044,-1.42088 0.16745,-0.16745 0.49862,0.10591 0.71043,0 0.29955,-0.14977 0.41089,-0.56066 0.71044,-0.71043 0.28168,-0.14084 1.98607,0.14524 2.13131,0 0.16745,-0.16745 -0.16745,-0.54299 0,-0.71044 0.16745,-0.16745 0.47363,0 0.71044,0 0.23681,0 0.47362,0 0.71044,0 0.23681,0 0.94724,0 0.71043,0 -1.62569,0 -2.7304,0.14977 0.71044,-0.71044 0.29168,-0.0729 1.33476,0.0861 1.42087,0 0.16745,-0.16745 -0.16745,-0.54298 0,-0.71043 0.0229,-0.0229 1.95901,0 2.13131,0 3.55219,0 7.10437,0 10.65656,0 1.8945,0 3.789,0 5.68349,0 0.23682,0 0.47363,0 0.71044,0 0.23681,0 0.54299,-0.16745 0.71044,0 0.16745,0.16745 -0.16745,0.54298 0,0.71043 0.2372,0.23721 1.18366,-0.2372 1.42087,0 0.16745,0.16746 -0.16745,0.54299 0,0.71044 0.3349,0.3349 0.99725,-0.21181 1.42088,0 0.29954,0.14977 0.41089,0.56066 0.71043,0.71044 0.21181,0.1059 0.54299,-0.16745 0.71044,0 0.16745,0.16745 -0.16745,0.54298 0,0.71043 0.16745,0.16746 0.49862,-0.1059 0.71044,0 0.29954,0.14978 0.41089,0.56067 0.71043,0.71044 0.28169,0.14084 1.98607,-0.14524 2.13131,0 0.33491,0.33491 -0.3349,1.08597 0,1.42088 0.23635,0.23634 1.18454,-0.23635 1.42088,0 0.16745,0.16745 -0.16745,0.54298 0,0.71043 0.16745,0.16745 0.54298,-0.16745 0.71043,0 0.16746,0.16745 -0.16745,0.54299 0,0.71044 0.16746,0.16745 0.54299,-0.16745 0.71044,0 0.16745,0.16745 -0.16745,0.54299 0,0.71044 0.16745,0.16745 0.49863,-0.10591 0.71044,0 0.29955,0.14977 0.41089,0.56066 0.71044,0.71043 0.42362,0.21182 1.08597,-0.3349 1.42087,0 0.16745,0.16746 -0.16745,0.54299 0,0.71044 0.23721,0.23721 1.18367,-0.23721 1.42087,0 0.23693,0.23693 -0.23692,1.18395 0,1.42087 0.23727,0.23727 1.18361,-0.23726 1.42088,0 0.3349,0.33491 -0.33491,1.08598 0,1.42088 0.23697,0.23697 1.1839,-0.23698 1.42087,0 0.16745,0.16745 -0.1059,0.49862 0,0.71044 0.14977,0.29954 0.56067,0.41089 0.71044,0.71043 0.1059,0.21181 -0.16745,0.54299 0,0.71044 0.35522,0.35522 1.77609,-0.35522 2.13131,0 0.16745,0.16745 -0.16745,0.54298 0,0.71044 0.23634,0.23634 1.18453,-0.23635 1.42087,0 1.46992,1.46992 -2.24623,-0.0575 0.71044,1.42087 0.42362,0.21181 0.99725,-0.21181 1.42087,0 0.29955,0.14977 0.41089,0.56066 0.71044,0.71044 0.21181,0.1059 0.54299,-0.16745 0.71044,0 0.16745,0.16745 -0.16745,0.54298 0,0.71043 0.17095,0.17096 2.67079,-0.17095 2.84175,0 0.16745,0.16746 -0.16746,0.54299 0,0.71044 0.2372,0.23721 1.18366,-0.23721 1.42087,0 0.16745,0.16745 -0.16745,0.54299 0,0.71044 0.14524,0.14524 1.84963,-0.14084 2.13131,0 0.29955,0.14977 0.41089,0.56066 0.71044,0.71043 0.3854,0.19271 2.64735,-0.19439 2.84175,0 0.94724,0.94725 -1.18407,0.71044 0.71043,0.71044 0.1723,0 2.10847,-0.0228 2.13131,0 0.16745,0.16745 -0.16745,0.54299 0,0.71044 0.16745,0.16745 0.54299,-0.16745 0.71044,0 0.16745,0.16745 -0.16745,0.54298 0,0.71044 0.23698,0.23697 1.1839,-0.23698 1.42087,0 0.16746,0.16745 -0.16745,0.54298 0,0.71043 0.33491,0.33491 1.08597,-0.3349 1.42088,0 0.16745,0.16745 -0.16745,0.54299 0,0.71044 0.16745,0.16745 0.54298,-0.16745 0.71043,0 0.16746,0.16745 -0.16745,0.54299 0,0.71044 0.16746,0.16745 0.54299,-0.16745 0.71044,0 0.16745,0.16745 -0.16745,0.54298 0,0.71043 1.46992,1.46992 -0.0575,-2.24623 1.42088,0.71044 0,1.8945 -0.23682,-0.23681 0.71043,0.71044 0.33491,0.3349 -0.3349,1.08597 0,1.42087 0.23698,0.23698 1.1839,-0.23697 1.42088,0 0.16745,0.16745 0,0.47363 0,0.71044 0,0.23681 0.23681,0.71044 0,0.71044 -0.23682,0 0,-0.94725 0,-0.71044 0,0.47362 -0.21181,0.99725 0,1.42087 0.1059,0.21181 0.54298,-0.16745 0.71043,0 0.35522,0.35522 -0.35522,1.77609 0,2.13131 0.16746,0.16745 0.54299,-0.16745 0.71044,0 0.35522,0.35522 -0.35522,1.7761 0,2.13131 0.16745,0.16746 0.54299,-0.16745 0.71044,0 0.3349,0.33491 -0.21181,0.99726 0,1.42088 0.14977,0.29954 0.56066,0.41089 0.71043,0.71043 0.14085,0.28169 -0.14523,1.98608 0,2.13132 0.16746,0.16745 0.54299,-0.16746 0.71044,0 0.16745,0.16745 0,0.47362 0,0.71043 0,1.18406 0,2.36813 0,3.55219 0,0.47362 0,1.8945 0,1.42087 0,-0.47362 0,-1.8945 0,-1.42087 0,2.13131 0,4.26262 0,6.39393 0,0.23681 0.16745,0.54299 0,0.71044 -0.16745,0.16745 -0.54298,-0.16745 -0.71044,0 -0.16745,0.16745 0.16746,0.54298 0,0.71043 -0.16745,0.16746 -0.54298,-0.16745 -0.71043,0 -0.0322,0.0322 0,3.21722 0,3.55219 0,0.47362 0,0.94725 0,1.42087 0,0.23681 0,0.94725 0,0.71044 0,-1.6257 0.14977,-2.7304 -0.71044,0.71044 -0.11487,0.45948 0,0.94725 0,1.42087 0,0.23681 0.16745,0.54299 0,0.71044 -0.16745,0.16745 -0.54298,-0.16745 -0.71044,0 -0.35522,0.35522 0.35522,1.77609 0,2.13131 -0.16745,0.16745 -0.54298,-0.16745 -0.71043,0 -0.16746,0.16745 0,0.47362 0,0.71044 -0.23682,0 -0.54299,-0.16746 -0.71044,0 -0.35522,0.35521 0.35522,1.77609 0,2.13131 -0.16745,0.16745 -0.54299,-0.16746 -0.71044,0 -0.16745,0.16745 0.16745,0.54298 0,0.71043 -0.16745,0.16745 -0.54298,-0.16745 -0.71043,0 -0.33491,0.33491 0.3349,1.08597 0,1.42088 -1.46992,1.46992 0.0575,-2.24623 -1.42088,0.71043 -0.1059,0.21182 0.16745,0.54299 0,0.71044 -0.16745,0.16745 -0.71044,0.23681 -0.71044,0 0,-0.3349 0.71044,-1.04534 0.71044,-0.71044 0,0.52953 -0.54298,0.91852 -0.71044,1.42088 -0.0749,0.22466 0.16746,0.54298 0,0.71043 -0.16745,0.16746 -0.54298,-0.16745 -0.71043,0 -0.16745,0.16746 0.16745,0.54299 0,0.71044 -0.16745,0.16745 -0.54299,-0.16745 -0.71044,0 -0.16745,0.16745 0.16745,0.54299 0,0.71044 -0.16745,0.16745 -0.54298,-0.16745 -0.71044,0 -0.16745,0.16745 0.16746,0.54298 0,0.71044 -0.16745,0.16745 -0.54298,-0.16746 -0.71043,0 -0.16745,0.16745 0.16745,0.54298 0,0.71043 -0.16745,0.16745 -0.54299,-0.16745 -0.71044,0 -0.3349,0.33491 0.3349,1.08597 0,1.42088 -0.23634,0.23634 -1.18453,-0.23635 -1.42087,0 -0.16746,0.16745 0.16745,0.54298 0,0.71043 -0.16746,0.16745 -0.54299,-0.16745 -0.71044,0 -0.3349,0.33491 0.3349,1.08597 0,1.42088 -0.16745,0.16745 -0.54299,-0.16745 -0.71044,0 -0.16745,0.16745 0.16745,0.54298 0,0.71043 -0.16745,0.16746 -0.54298,-0.16745 -0.71043,0 -0.16746,0.16746 0.1059,0.49863 0,0.71044 -0.14978,0.29955 -0.56067,0.41089 -0.71044,0.71044 -0.10591,0.21181 0.16745,0.54298 0,0.71044 -0.16745,0.16745 -0.54299,-0.16746 -0.71044,0 -0.16745,0.16745 0.16745,0.54298 0,0.71043 -0.16745,0.16745 -0.49862,-0.1059 -0.71044,0 -0.29954,0.14978 -0.41089,0.56067 -0.71043,0.71044 -0.21181,0.1059 -0.54299,-0.16745 -0.71044,0 -0.16745,0.16745 0.10591,0.49862 0,0.71044 -0.78541,1.57081 -0.44093,0.22046 -1.42087,0.71043 -0.29955,0.14978 -1.04534,0.71044 -0.71044,0.71044 0.52953,0 1.9504,-0.71044 1.42087,-0.71044 -0.74886,0 -1.4048,0.52881 -2.13131,0.71044 -0.22974,0.0574 -0.49862,-0.10591 -0.71043,0 -0.29955,0.14977 -0.41089,0.56066 -0.71044,0.71044 -0.44006,0.22002 -2.63154,-0.21021 -2.84175,0 -0.16745,0.16745 0.16745,0.54298 0,0.71043 -0.35522,0.35522 -1.77609,-0.35521 -2.13131,0 -0.16745,0.16746 0.16745,0.54299 0,0.71044 -0.16745,0.16745 -0.47362,0 -0.71044,0 -1.18406,0 -2.36812,0 -3.55218,0 -0.71044,0 -1.42088,0 -2.13131,0 -0.23681,0 -0.94725,0 -0.71044,0 0.47363,0 1.8945,0 1.42087,0 -1.89449,0 -3.78899,0 -5.68349,0 -3.789,0 -7.578,0 -11.36699,0 -1.65769,0 -3.31537,0 -4.97306,0 -0.23681,0 -0.54299,-0.16745 -0.71044,0 -0.16745,0.16745 0.16745,0.54299 0,0.71044 -0.14524,0.14524 -1.84963,-0.14084 -2.13131,0 -0.29955,0.14977 -0.41089,0.56066 -0.71044,0.71043 -0.49072,0.24537 -3.3028,-0.24937 -3.55218,0 -0.16745,0.16746 0.16745,0.54299 0,0.71044 -0.16745,0.16745 -0.54299,-0.16745 -0.71044,0 -0.16745,0.16745 0.16745,0.54299 0,0.71044 -0.16745,0.16745 -0.47362,0 -0.71043,0 -0.23682,0 -0.47363,0 -0.71044,0 -1.42088,0 -2.84175,0 -4.26262,0 -0.31995,0 -1.9151,-0.10811 -2.13131,0 -0.29955,0.14977 -0.41089,0.56066 -0.71044,0.71044 -0.18368,0.0918 -3.75906,0 -4.26262,0 -0.23682,0 -0.54299,-0.16746 -0.71044,0 -0.16745,0.16745 0.16745,0.54298 0,0.71043 -0.16745,0.16745 -0.47362,0 -0.71044,0 -1.18406,0 -2.36812,0 -3.55218,0 -0.23681,0 -0.54299,-0.16745 -0.71044,0 -0.16745,0.16745 0.16745,0.54299 0,0.71044 -0.35522,0.35522 -1.77609,-0.35522 -2.13131,0 -0.16745,0.16745 0.16745,0.54298 0,0.71044 -0.16745,0.16745 -0.47362,0 -0.71044,0 -1.42087,0 -2.84174,0 -4.26262,0 -0.23681,0 -0.54298,-0.16746 -0.71043,0 -0.16746,0.16745 0.16745,0.54298 0,0.71043 -0.21999,0.21999 -3.3322,-0.21998 -3.55219,0 -0.16745,0.16745 0.16745,0.54299 0,0.71044 -0.14524,0.14524 -1.84963,-0.14084 -2.13131,0 -0.59909,0.29955 -0.82178,1.12133 -1.42087,1.42087 -0.21182,0.10591 -0.54299,-0.16745 -0.71044,0 -0.16745,0.16746 0.16745,0.54299 0,0.71044 -0.23698,0.23698 -1.1839,-0.23697 -1.42088,0 -0.16745,0.16745 0.16746,0.54299 0,0.71044 -0.2375,0.2375 -1.18337,-0.2375 -1.42087,0 -0.3349,0.3349 0.3349,1.08597 0,1.42087 -0.23698,0.23698 -1.1839,-0.23697 -1.42087,0 -0.16745,0.16745 0.16745,0.54299 0,0.71044 -0.16745,0.16745 -0.54299,-0.16745 -0.71044,0 -0.16745,0.16745 0.16745,0.54298 0,0.71044 -0.16745,0.16745 -0.54299,-0.16746 -0.71044,0 -0.3349,0.3349 0.21181,0.99725 0,1.42087 -0.14977,0.29955 -0.56066,0.41089 -0.71043,0.71044 -0.21182,0.42362 0.3349,1.08597 0,1.42087 -0.16746,0.16745 -0.49863,-0.10591 -0.71044,0 -2.95667,1.47833 0.75948,-0.049 -0.71044,1.42087 -0.16745,0.16746 -0.54298,-0.16745 -0.71043,0 -0.16746,0.16746 0.1059,0.49863 0,0.71044 -0.14978,0.29955 -0.56067,0.41089 -0.71044,0.71044 -0.48997,0.97994 0.86038,0.63546 -0.71044,1.42087 -1.8945,0 0.23681,-0.23681 -0.71044,0.71044 -0.16745,0.16745 -0.54298,-0.16745 -0.71043,0 -0.16745,0.16745 0.16745,0.54298 0,0.71044 -1.46992,1.46992 0.0575,-2.24624 -1.42088,0.71043 -0.1059,0.21181 0.16746,0.54299 0,0.71044 -0.16745,0.16745 -0.54298,-0.16745 -0.71043,0 -0.16746,0.16745 0.16745,0.54299 0,0.71044 -0.16746,0.16745 -0.54299,-0.16745 -0.71044,0 -0.16745,0.16745 0.16745,0.54298 0,0.71043 -0.16745,0.16746 -0.54299,-0.16745 -0.71044,0 -0.3349,0.33491 0.33491,1.08597 0,1.42088 -0.16745,0.16745 -0.54298,-0.16745 -0.71043,0 -0.16746,0.16745 0.16745,0.54298 0,0.71043 -0.16746,0.16746 -0.49863,-0.1059 -0.71044,0 -0.29955,0.14978 -0.41089,0.56067 -0.71044,0.71044 -0.21181,0.10591 -0.54298,-0.16745 -0.71044,0 -0.3349,0.33491 0.33491,1.08597 0,1.42088 -0.3349,0.3349 -1.08597,-0.33491 -1.42087,0 -0.16745,0.16745 0.16745,0.54298 0,0.71043 -1.8945,0 0.23681,-0.23681 -0.71044,0.71044 -0.16745,0.16745 -0.54298,-0.16745 -0.71043,0 -0.33491,0.3349 0.3349,1.08597 0,1.42087 -0.23576,0.23576 -1.18512,-0.23576 -1.42088,0 -0.16745,0.16746 0.16745,0.54299 0,0.71044 -0.3349,0.3349 -1.08597,-0.3349 -1.42087,0 -0.16745,0.16745 0.16745,0.54299 0,0.71044 -1.46992,1.46992 0.0575,-2.24623 -1.42087,0.71043 -0.10591,0.21182 0.16745,0.54299 0,0.71044 -0.33491,0.3349 -0.99726,-0.21181 -1.42088,0 -0.59909,0.29955 -0.82178,1.12133 -1.42087,1.42088 -0.21181,0.1059 -0.54299,-0.16746 -0.71044,0 -0.16745,0.16745 0.16745,0.54298 0,0.71043 -0.16745,0.16745 -0.54298,-0.16745 -0.71044,0 -0.16745,0.16745 0.16746,0.54299 0,0.71044 -0.16745,0.16745 -0.54298,-0.16745 -0.71043,0 -0.16746,0.16745 0.16745,0.54298 0,0.71044 -0.33491,0.3349 -1.08597,-0.33491 -1.42088,0 -0.16745,0.16745 0.16745,0.54298 0,0.71043 -0.16745,0.16745 -0.54298,-0.16745 -0.71043,0 -0.94725,0.94725 1.18406,0.71044 -0.71044,0.71044 -0.23681,0 -0.94725,0 -0.71044,0 0.47363,0 1.42088,-0.47362 1.42088,0 0,1.9563 -1.62151,0.20063 -2.13132,0.71044 -0.16745,0.16745 0.16746,0.54298 0,0.71043 -0.3349,0.33491 -1.08597,-0.3349 -1.42087,0 -0.94725,0.94725 1.18406,0.71044 -0.71044,0.71044 -1.89449,0 0.23682,-0.23681 -0.71043,0.71044 -0.33491,0.3349 -1.08597,-0.33491 -1.42088,0 -0.16745,0.16745 0.16745,0.54298 0,0.71043 -0.16745,0.16746 -0.71043,0.23682 -0.71043,0 0,-0.23681 0.54298,-0.16745 0.71043,0 0.94725,0.94725 -1.18406,0.71044 0.71044,0.71044 2.62134,0 1.40731,0 4.26262,0 0.23681,0 0.47363,0 0.71044,0 3.12592,0 -5.49405,0 1.42087,0 0.71044,0 1.42088,0 2.13131,0 0.23682,0 0.94725,0 0.71044,0 -2.77529,0 -0.92225,-0.21181 0,0.71044 0.16745,0.16745 -0.16745,0.54298 0,0.71044 0.3349,0.3349 0.99725,-0.21182 1.42087,0 0.29955,0.14977 0.41089,0.56066 0.71044,0.71043 0.21181,0.10591 0.49863,-0.1059 0.71044,0 0.29954,0.14978 0.41089,0.56067 0.71044,0.71044 0.21181,0.10591 0.54298,-0.16745 0.71043,0 0.16745,0.16745 -0.16745,0.54299 0,0.71044 0.16745,0.16745 0.54299,-0.16745 0.71044,0 0.16745,0.16745 -0.16745,0.54298 0,0.71043 0.16745,0.16746 0.54298,-0.16745 0.71044,0 0.3349,0.33491 -0.33491,1.08597 0,1.42088 0.3349,0.3349 1.08597,-0.33491 1.42087,0 0.23634,0.23634 -0.23634,1.18453 0,1.42087 0.16745,0.16745 0.54299,-0.16745 0.71044,0 0.16745,0.16745 -0.16745,0.54299 0,0.71044 0.16745,0.16745 0.54298,-0.16745 0.71043,0 0.33491,0.3349 -0.3349,1.08597 0,1.42087 0.16746,0.16745 0.54299,-0.16745 0.71044,0 0.16745,0.16745 -0.16745,0.54299 0,0.71044 0.16745,0.16745 0.54299,-0.16745 0.71044,0 0.3349,0.3349 -0.33491,1.08597 0,1.42087 0.16745,0.16745 0.54298,-0.16745 0.71043,0 0.16746,0.16745 -0.1059,0.49863 0,0.71044 0.14978,0.29955 0.56067,0.41089 0.71044,0.71044 0.10591,0.21181 -0.16745,0.54298 0,0.71043 0.16745,0.16746 0.54299,-0.16745 0.71044,0 0.16745,0.16746 -0.16745,0.54299 0,0.71044 0.16745,0.16745 0.54298,-0.16745 0.71044,0 0.3349,0.3349 -0.21182,0.99725 0,1.42087 0.14977,0.29955 0.56066,0.4109 0.71043,0.71044 0.18908,0.37815 -0.18907,1.04273 0,1.42088 0.14978,0.29954 0.56067,0.41089 0.71044,0.71043 0.21181,0.42363 -0.3349,1.08597 0,1.42088 0.16745,0.16745 0.54298,-0.16746 0.71044,0 0.16745,0.16745 -0.16746,0.54298 0,0.71043 0.16745,0.16746 0.54298,-0.16745 0.71043,0 0.33491,0.33491 -0.3349,1.08597 0,1.42088 0.16746,0.16745 0.54299,-0.16745 0.71044,0 0.16745,0.16745 0,0.47362 0,0.71043 0,0.23682 0,0.47363 0,0.71044 0,0.47363 0,0.94725 0,1.42088 0,0.23681 0,0.94724 0,0.71043 0,-0.47362 0.47363,-1.42087 0,-1.42087 -1.9563,0 -0.20063,1.6215 -0.71044,2.13131 -0.16745,0.16745 -0.54298,-0.16745 -0.71043,0 -0.16746,0.16745 0.16745,0.54298 0,0.71044 -0.16746,0.16745 -0.54299,-0.16746 -0.71044,0 -0.16745,0.16745 0.16745,0.54298 0,0.71043 -0.16745,0.16745 -0.49863,-0.1059 -0.71044,0 -0.29954,0.14978 -0.41089,0.56067 -0.71043,0.71044 -0.21182,0.10591 -0.54299,-0.16745 -0.71044,0 -0.16745,0.16745 0.16745,0.54299 0,0.71044 -0.3349,0.3349 -1.08597,-0.33491 -1.42088,0 -0.3349,0.3349 0.33491,1.08597 0,1.42087 -0.3349,0.3349 -1.08597,-0.3349 -1.42087,0 -0.16745,0.16745 0.16745,0.54299 0,0.71044 -0.3349,0.3349 -1.08597,-0.33491 -1.42087,0 -0.16745,0.16745 0.16745,0.54298 0,0.71043 -0.35522,0.35522 -1.7761,-0.35521 -2.13131,0 -0.16746,0.16746 0.16745,0.54299 0,0.71044 -0.35522,0.35522 -1.7761,-0.35522 -2.13131,0 -0.16746,0.16745 0.16745,0.54299 0,0.71044 -0.14524,0.14524 -1.84963,-0.14084 -2.13132,0 -0.29954,0.14977 -0.41089,0.56066 -0.71043,0.71044 -0.28169,0.14084 -1.98607,-0.14524 -2.13131,0 -0.16746,0.16745 0.16745,0.54298 0,0.71043 -0.17096,0.17096 -2.6708,-0.17095 -2.84175,0 -0.16745,0.16745 0.16745,0.54299 0,0.71044 -0.3349,0.3349 -0.99725,-0.21181 -1.42088,0 -0.29954,0.14977 -0.41089,0.56066 -0.71043,0.71044 -0.4314,0.21569 -3.83123,-0.2157 -4.26262,0 -0.29955,0.14977 -0.41089,0.56066 -0.71044,0.71043 -0.42362,0.21181 -1.08597,-0.3349 -1.42087,0 -0.16746,0.16746 0.16745,0.54299 0,0.71044 -0.16746,0.16745 -0.47363,0 -0.71044,0 -0.49414,0 -3.29527,-0.12846 -3.55219,0 -3.25139,1.6257 3.01468,-0.29446 -2.13131,1.42087 -0.39168,0.13057 -2.68985,-0.15189 -2.84175,0 -0.16745,0.16746 0.16746,0.54299 0,0.71044 -0.17095,0.17095 -2.67079,-0.17095 -2.84174,0 -0.16745,0.16745 0.16745,0.54299 0,0.71044 -0.35522,0.35522 -1.7761,-0.35522 -2.13131,0 -0.16746,0.16745 0.16745,0.54298 0,0.71044 -0.19439,0.19439 -2.45635,-0.19271 -2.84175,0 -0.29955,0.14977 -0.41089,0.56066 -0.71044,0.71043 -0.56835,0.28418 -1.56296,-0.28417 -2.13131,0 -0.29955,0.14978 -0.41089,0.56067 -0.71044,0.71044 -0.21181,0.1059 -0.47362,0 -0.71043,0 -0.23682,0 -0.47363,0 -0.71044,0 -1.42087,0 -2.84175,0 -4.26262,0 -2.28613,0 -6.13171,0.13111 -6.39393,0 -0.21182,-0.10591 0.16745,-0.54299 0,-0.71044 -0.33491,-0.3349 -1.42088,0.47363 -1.42088,0 0,-0.23681 0.94725,0 0.71044,0 -0.47363,0 -0.94725,0 -1.42088,0 -0.23681,0 -0.54298,0.16745 -0.71043,0 -0.16745,-0.16745 0.16745,-0.54298 0,-0.71043 -0.16745,-0.16746 -0.54299,0.16745 -0.71044,0 -0.16745,-0.16746 0.16745,-0.54299 0,-0.71044 -0.3349,-0.33491 -1.08597,0.3349 -1.42087,0 -0.16745,-0.16745 0.16745,-0.54299 0,-0.71044 -0.16745,-0.16745 -0.49863,0.10591 -0.71044,0 -0.29955,-0.14977 -0.41089,-0.56066 -0.71044,-0.71044 -0.42362,-0.21181 -1.08597,0.33491 -1.42087,0 -0.3349,-0.3349 0.3349,-1.08597 0,-1.42087 -0.3349,-0.3349 -1.08597,0.3349 -1.42087,0 -0.16746,-0.16745 0.16745,-0.54298 0,-0.71044 -0.23577,-0.23576 -1.18512,0.23576 -1.42088,0 -0.16745,-0.16745 0.16745,-0.54298 0,-0.71043 -0.16745,-0.16746 -0.54298,0.16745 -0.71044,0 -0.16745,-0.16746 0.16746,-0.54299 0,-0.71044 -0.16745,-0.16745 -0.54298,0.16745 -0.71043,0 -0.16745,-0.16745 0.16745,-0.54299 0,-0.71044 -0.16745,-0.16745 -0.49863,0.10591 -0.71044,0 -0.29955,-0.14977 -0.47362,-0.47362 -0.71044,-0.71043 -0.23681,-0.23682 -0.56066,-0.41089 -0.71043,-0.71044 -0.10591,-0.21181 0.16745,-0.54299 0,-0.71044 -0.16746,-0.16745 -0.54299,0.16745 -0.71044,0 -0.16745,-0.16745 0.16745,-0.54298 0,-0.71044 -0.16745,-0.16745 -0.54299,0.16746 -0.71044,0 -0.16745,-0.16745 0.16745,-0.54298 0,-0.71043 -0.16745,-0.16745 -0.54298,0.16745 -0.71043,0 -0.35522,-0.35522 0.35521,-1.77609 0,-2.13131 -0.94725,-0.94725 -0.71044,1.18406 -0.71044,-0.71044 0,-0.2609 0.0286,-2.81316 0,-2.84175 -0.16745,-0.16745 -0.54299,0.16745 -0.71044,0 -0.16745,-0.16745 0,-0.47362 0,-0.71043 0,-0.23682 0,-0.47363 0,-0.71044 0,-2.13131 0,-4.26262 0,-6.39393 0,-0.23682 0,-0.47363 0,-0.71044 0,-0.23681 0.16745,-0.54299 0,-0.71044 -0.16745,-0.16745 -0.54298,0.16745 -0.71044,0 -0.16745,-0.16745 0.10591,-0.49862 0,-0.71044 -0.14977,-0.29954 -0.56066,-0.41089 -0.71043,-0.71043 -0.10591,-0.21181 0,-0.47363 0,-0.71044 0,-0.23681 -0.23681,-0.71044 0,-0.71044 0.23681,0 0,0.94725 0,0.71044 0,-1.65769 0.47362,-1.42087 -0.71044,-1.42087 -0.1723,0 -2.10846,-0.0228 -2.13131,0 -0.16745,0.16745 0.16745,0.54298 0,0.71043 -0.3349,0.33491 -1.08597,-0.3349 -1.42087,0 -0.16746,0.16746 0.1059,0.49863 0,0.71044 -0.14978,0.29955 -0.47363,0.94725 -0.71044,0.71044 -0.23681,-0.23681 1.04534,-0.71044 0.71044,-0.71044 -1.71533,0 -1.04966,0.88005 -2.13131,1.42087 -0.21182,0.10591 -0.60454,-0.21181 -0.71044,0 -0.21181,0.42363 0.21181,0.99726 0,1.42088 -0.10591,0.21181 -0.47363,0 -0.71044,0 -1.6661,0 0.3349,-0.16745 -1.42087,0.71044 -0.42363,0.21181 -1.08597,-0.33491 -1.42088,0 -0.16745,0.16745 0.16746,0.54298 0,0.71043 -0.16745,0.16745 -0.47362,0 -0.71043,0 -0.23682,0 -0.47363,0 -0.71044,0 -1.65769,0 -3.31537,0 -4.97306,0 -2.60493,0 -5.20987,0 -7.81481,0 -0.3715,0 -2.65494,-0.0934 -2.84174,0 -0.29955,0.14978 -0.41089,0.56067 -0.71044,0.71044 -0.28168,0.14084 -1.98607,-0.14524 -2.13131,0 -0.16745,0.16745 0.16745,0.54298 0,0.71044 -0.16745,0.16745 -0.47363,0 -0.71044,0 -0.23681,0 -0.47362,0 -0.71044,0 -1.42087,0 -2.84174,0 -4.26262,0 -0.47362,0 -0.99725,-0.21181 -1.42087,0 -0.21181,0.1059 0.16745,0.54298 0,0.71043 -0.0286,0.0286 -2.58085,0 -2.84175,0 -2.36812,0 -4.73624,0 -7.10437,0 -0.57193,0 -2.39584,-0.14863 -2.84175,0 -0.50235,0.16746 -0.91852,0.54299 -1.42087,0.71044 -0.42361,0.1412 -3.5743,0 -4.26262,0 -0.23681,0 -0.47363,0 -0.71044,0 -0.23681,0 -0.54298,-0.16745 -0.71044,0 -0.16745,0.16745 0.16746,0.54299 0,0.71044 -0.16745,0.16745 -0.47362,0 -0.71043,0 -0.50356,0 -4.07894,-0.0918 -4.26262,0 -0.29955,0.14977 -0.41089,0.56066 -0.71044,0.71043 -0.25692,0.12846 -3.05805,0 -3.55219,0 -2.13131,0 -4.26262,0 -6.39393,0 -0.3715,0 -2.65494,-0.0934 -2.84175,0 -0.29954,0.14978 -0.41089,0.56067 -0.71043,0.71044 -0.25692,0.12846 -3.05805,0 -3.55219,0 -2.84175,0 -5.68349,0 -8.52524,0 -0.33497,0 -3.51999,-0.0322 -3.55219,0 -0.16745,0.16745 0.16746,0.54299 0,0.71044 -0.35521,0.35522 -1.77609,-0.35522 -2.13131,0 -0.16745,0.16745 0.16745,0.54298 0,0.71044 -0.0322,0.0322 -3.21721,0 -3.55218,0 -0.2609,0 -2.81316,-0.0286 -2.84175,0 -0.16745,0.16745 0.16745,0.54298 0,0.71043 -0.16745,0.16745 -0.47362,0 -0.71044,0 -0.23681,0 -0.47362,0 -0.71043,0 -1.42088,0 -2.84175,0 -4.26263,0 -0.31995,0 -1.9151,0.10811 -2.13131,0 -0.29954,-0.14977 -0.41089,-0.56066 -0.71043,-0.71043 -0.21621,-0.10811 -1.81136,0 -2.13131,0 -1.42088,0 -2.84175,0 -4.26263,0 -0.23681,0 -0.47362,0 -0.71043,0 -0.23681,0 -0.54299,0.16745 -0.71044,0 -0.16745,-0.16746 0.16745,-0.54299 0,-0.71044 -0.16745,-0.16745 -0.47362,0 -0.71044,0 -1.18406,0 -2.36812,0 -3.55218,0 -0.33497,0 -3.51999,0.0322 -3.55219,0 -0.16745,-0.16745 0.16746,-0.54299 0,-0.71044 -0.16745,-0.16745 -0.47362,0 -0.71043,0 -1.65769,0 -3.31538,0 -4.97306,0 -0.23681,0 -0.47363,0 -0.71044,0 -0.23681,0 -0.54298,0.16745 -0.71044,0 -0.16745,-0.16745 0.16746,-0.54298 0,-0.71044 -0.0228,-0.0228 -1.95901,0 -2.13131,0 -0.49413,0 -3.29526,0.12846 -3.55218,0 -0.29955,-0.14977 -0.41089,-0.56066 -0.71044,-0.71043 -0.28168,-0.14084 -1.98607,0.14524 -2.13131,0 -0.16745,-0.16745 0.16745,-0.54299 0,-0.71044 -0.16745,-0.16745 -0.47362,0 -0.71044,0 -1.42087,0 -2.84174,0 -4.26262,0 -0.23681,0 -0.54298,0.16745 -0.71043,0 -0.94725,-0.94725 1.18406,-0.71044 -0.71044,-0.71044 -3.07856,0 -6.15712,0 -9.23568,0 -0.23681,0 -0.47363,0 -0.71044,0 -0.23681,0 -0.54298,0.16746 -0.71044,0 -0.16745,-0.16745 0.16746,-0.54298 0,-0.71043 -0.0322,-0.0322 -3.21721,0 -3.55218,0 -0.23681,0 -0.54299,0.16745 -0.71044,0 -0.16745,-0.16746 0.16745,-0.54299 0,-0.71044 -0.16745,-0.16745 -0.47362,0 -0.71043,0 -1.18407,0 -2.36813,0 -3.55219,0 -0.23681,0 -0.54298,0.16745 -0.71044,0 -0.16745,-0.16745 0.16746,-0.54299 0,-0.71044 -0.16745,-0.16745 -0.47362,0 -0.71043,0 -0.94725,0 -1.8945,0 -2.84175,0 -0.23681,0 -0.47363,0 -0.71044,0 -0.23681,0 -0.49862,0.10591 -0.71044,0 -0.29954,-0.14977 -0.41089,-0.56066 -0.71043,-0.71043 -0.21181,-0.10591 -0.47363,0 -0.71044,0 -0.50356,0 -4.07894,0.0918 -4.26262,0 -0.29955,-0.14978 -0.41089,-0.56067 -0.71044,-0.71044 -0.21181,-0.10591 -0.47362,0 -0.71043,0 -0.23682,0 -0.47363,0 -0.71044,0 -0.3715,0 -2.65495,0.0934 -2.84175,0 -0.29955,-0.14977 -0.41089,-0.56066 -0.71044,-0.71044 -0.21181,-0.1059 -0.54298,0.16745 -0.71043,0 -0.16745,-0.16745 0.16745,-0.54298 0,-0.71044 -0.35522,-0.35521 -1.7761,0.35522 -2.13131,0 -0.16746,-0.16745 0.16745,-0.54298 0,-0.71043 -0.17096,-0.17096 -2.6708,0.17095 -2.84175,0 -0.16745,-0.16745 0.16745,-0.54299 0,-0.71044 -0.24938,-0.24938 -3.06146,0.24536 -3.55219,0 -0.59909,-0.29955 -0.82178,-1.12133 -1.42087,-1.42087 -0.42362,-0.21181 -1.08597,0.3349 -1.42087,0 -0.94725,-0.94725 1.18406,-0.71044 -0.71044,-0.71044 -0.31995,0 -1.9151,0.10811 -2.13131,0 -0.29955,-0.14977 -0.41089,-0.56066 -0.71044,-0.71044 -0.18368,-0.0918 -3.75906,0 -4.26262,0 -0.23681,0 -0.54299,0.16745 -0.71044,0 -0.16745,-0.16745 0.16745,-0.54298 0,-0.71043 -0.3349,-0.33491 -1.08597,0.3349 -1.42087,0 -0.16745,-0.16746 0.16745,-0.54299 0,-0.71044 -0.16745,-0.16745 -0.47363,0 -0.71044,0 -0.33497,0 -3.51999,0.0322 -3.55218,0 -0.16746,-0.16745 0.16745,-0.54299 0,-0.71044 -0.21999,-0.21998 -3.3322,0.21999 -3.55219,0 -0.16745,-0.16745 0.16745,-0.54298 0,-0.71043 -0.16745,-0.16746 -0.54298,0.16745 -0.71044,0 -0.16745,-0.16746 0.16746,-0.54299 0,-0.71044 -0.16745,-0.16745 -0.54298,0.16745 -0.71043,0 -0.94725,-0.94725 1.18406,-0.71044 -0.71044,-0.71044 -0.2609,0 -2.81316,0.0286 -2.84175,0 -0.16745,-0.16745 0.16745,-0.54298 0,-0.71044 -0.14524,-0.14523 -1.84963,0.14085 -2.13131,0 -0.29954,-0.14977 -0.41089,-0.56066 -0.71043,-0.71043 -0.42363,-0.21181 -1.08598,0.3349 -1.42088,0 -0.16745,-0.16745 -0.23681,-0.71044 0,-0.71044 0.23681,0 0.23681,0.71044 0,0.71044 -0.3349,0 -0.41089,-0.56067 -0.71044,-0.71044 -0.21181,-0.10591 -0.54298,0.16745 -0.71043,0 -0.16745,-0.16745 -0.23681,-0.71044 0,-0.71044 0.23681,0 0.23681,0.71044 0,0.71044 -0.27745,0 -0.80012,-1.3312 -1.42088,-0.71044 -0.16745,0.16746 0.10591,0.49863 0,0.71044 -0.14977,0.29955 -0.47362,0.94725 -0.71043,0.71044 -0.23682,-0.23681 0.71043,-1.04534 0.71043,-0.71044 0,2.52603 -1.58463,0.87419 -2.13131,1.42087 -0.16745,0.16746 0.16745,0.54299 0,0.71044 -0.16745,0.16745 -0.54298,-0.16745 -0.71043,0 -0.16746,0.16745 0.16745,0.54299 0,0.71044 -0.16746,0.16745 -0.71044,0.23681 -0.71044,0 0,-0.3349 0.71044,-1.04534 0.71044,-0.71044 0,3.58899 -0.54599,0.54599 -1.42088,1.42088 -0.16745,0.16745 0,0.47362 0,0.71043 -0.23681,0 -0.49862,-0.1059 -0.71044,0 -1.7012,0.85061 0.44772,1.42088 -1.42087,1.42088 -1.8945,0 0.23681,-0.23682 -0.71044,0.71043 -0.16745,0.16745 -0.54298,-0.16745 -0.71043,0 -0.16745,0.16745 0.16745,0.54299 0,0.71044 -1.46992,1.46992 0.0575,-2.24623 -1.42088,0.71044 -0.1059,0.21181 0.16745,0.54298 0,0.71043 -0.16745,0.16746 -0.54298,-0.16745 -0.71043,0 -0.16746,0.16746 0.16745,0.54299 0,0.71044 -0.33491,0.3349 -1.08597,-0.3349 -1.42088,0 -0.16745,0.16745 0.16745,0.54299 0,0.71044 -0.16745,0.16745 -0.54298,-0.16745 -0.71043,0 -0.16746,0.16745 0.16745,0.54298 0,0.71043 -0.16746,0.16746 -0.54299,-0.16745 -0.71044,0 -0.16745,0.16746 0.16745,0.54299 0,0.71044 -0.16745,0.16745 -0.71044,0.23681 -0.71044,0 0,-0.23681 0.94725,0 0.71044,0 -0.47363,0 -0.99725,-0.21181 -1.42088,0 -0.21181,0.10591 0.16746,0.54299 0,0.71044 -1.89449,0 0.23682,-0.23681 -0.71043,0.71044 -0.35522,0.35521 -1.77609,-0.35522 -2.13131,0 -0.16746,0.16745 0.16745,0.54298 0,0.71043 -0.23693,0.23693 -1.18395,-0.23692 -1.42088,0 -0.16745,0.16745 0.16745,0.54299 0,0.71044 -0.3349,0.3349 -0.99725,-0.21181 -1.42087,0 -0.29955,0.14977 -0.41089,0.56066 -0.71044,0.71044 -0.42362,0.21181 -0.99725,-0.21181 -1.42087,0 -0.29955,0.14977 -0.41089,0.56066 -0.71044,0.71043 -0.28168,0.14084 -1.98607,-0.14524 -2.13131,0 -0.16745,0.16746 0.16745,0.54299 0,0.71044 -0.14524,0.14524 -1.84963,-0.14084 -2.13131,0 -0.59909,0.29955 -0.82178,1.12133 -1.42087,1.42087 -0.25692,0.12846 -3.05805,0 -3.55219,0 -0.23681,0 -0.54298,-0.16745 -0.71044,0 -0.16745,0.16746 0.16746,0.54299 0,0.71044 -0.0228,0.0228 -1.95901,0 -2.13131,0 -1.6661,0 0.33491,-0.16745 -1.42087,0.71044 -0.18369,0.0918 -3.75906,0 -4.26262,0 -3.07856,0 -6.15712,0 -9.23568,0 -0.33497,0 -3.51999,-0.0322 -3.55219,0 -0.94725,0.94725 1.18406,0.71044 -0.71044,0.71044 -0.71043,0 -1.42087,0 -2.13131,0 -0.23681,0 -0.94725,0 -0.71043,0 0.47362,0 1.8945,0 1.42087,0 -0.71044,0 -1.42087,0 -2.13131,0 -0.23681,0 -0.54299,0.16745 -0.71044,0 -0.16745,-0.16746 0.16745,-0.54299 0,-0.71044 -0.17095,-0.17095 -2.67079,0.17095 -2.84174,0 -0.16746,-0.16745 0.16745,-0.54299 0,-0.71044 -0.17096,-0.17095 -2.6708,0.17095 -2.84175,0 0,-1.8945 0.23681,0.23681 -0.71044,-0.71044 -0.16745,-0.16745 0.16745,-0.54298 0,-0.71043 -0.35522,-0.35522 -1.77609,0.35522 -2.13131,0 -0.16745,-0.16745 0.16745,-0.54299 0,-0.71044 -0.35522,-0.35522 -1.77609,0.35522 -2.13131,0 -0.16745,-0.16745 0.16745,-0.54298 0,-0.71044 -0.23716,-0.23716 -1.18372,0.23716 -1.42087,0 -0.16746,-0.16745 0.16745,-0.54298 0,-0.71043 -0.16746,-0.16746 -0.54299,0.16745 -0.71044,0 -0.16745,-0.16746 0.16745,-0.54299 0,-0.71044 -0.16745,-0.16745 -0.49863,0.10591 -0.71044,0 -0.29955,-0.14977 -0.41089,-0.56066 -0.71044,-0.71044 -0.42362,-0.21181 -1.08597,0.33491 -1.42087,0 -0.16745,-0.16745 0.16745,-0.54298 0,-0.71043 -0.3349,-0.33491 -1.08597,0.3349 -1.42087,0 -0.16746,-0.16746 0.16745,-0.54299 0,-0.71044 -0.16746,-0.16745 -0.54299,0.16745 -0.71044,0 -0.16745,-0.16745 0.16745,-0.54299 0,-0.71044 -0.16745,-0.16745 -0.54299,0.16745 -0.71044,0 -0.16745,-0.16745 0.16745,-0.54298 0,-0.71044 -0.3349,-0.3349 -1.08597,0.33491 -1.42087,0 -0.16745,-0.16745 0.16745,-0.54298 0,-0.71043 -0.35522,-0.35522 -1.77609,0.35522 -2.13131,0 -0.16745,-0.16745 0.16745,-0.54299 0,-0.71044 -0.33491,-0.3349 -0.99725,0.21181 -1.42088,0 -0.85252,-0.42626 -1.27878,-1.70505 -2.13131,-2.13131 -0.42362,-0.21181 -1.08597,0.3349 -1.42087,0 -0.16745,-0.16745 0.16745,-0.54299 0,-0.71044 -0.16745,-0.16745 -0.54299,0.16745 -0.71044,0 -0.3349,-0.3349 0.33491,-1.08597 0,-1.42087 -0.35522,-0.35522 -1.77609,0.35522 -2.13131,0 -0.16745,-0.16745 0.16745,-0.54299 0,-0.71044 -0.16745,-0.16745 -0.54298,0.16745 -0.71044,0 -0.16745,-0.16745 0.16746,-0.54298 0,-0.71043 -0.3349,-0.33491 -1.08597,0.3349 -1.42087,0 -0.16745,-0.16746 0.16745,-0.54299 0,-0.71044 -0.16745,-0.16745 -0.47362,0 -0.71044,0 0,-0.23681 0.10591,-0.49863 0,-0.71044 -0.14977,-0.29955 -0.56066,-0.41089 -0.71043,-0.71044 -0.10591,-0.21181 -0.16746,-0.87788 0,-0.71043 0.37443,0.37443 1.23996,1.42087 0.71043,1.42087 -2.74612,0 -1.01153,-1.31262 -1.42087,-2.13131 -1.47833,-2.95667 0.049,0.75948 -1.42087,-0.71044 -0.33491,-0.3349 0.3349,-1.08597 0,-1.42087 -0.16746,-0.16745 -0.54299,0.16745 -0.71044,0 -0.3349,-0.3349 0.3349,-1.08597 0,-1.42087 -0.16745,-0.16746 -0.54299,0.16745 -0.71044,0 -0.16745,-0.16746 0.16745,-0.54299 0,-0.71044 -0.16745,-0.16745 -0.54298,0.16745 -0.71044,0 -0.16745,-0.16745 0.16746,-0.54299 0,-0.71044 -0.16745,-0.16745 -0.54298,0.16745 -0.71043,0 -0.14524,-0.14524 0.14084,-1.84963 0,-2.13131 -0.14978,-0.29955 -0.56067,-0.41089 -0.71044,-0.71044 -0.21181,-0.42362 0.3349,-1.08597 0,-1.42087 -0.16745,-0.16745 -0.54298,0.16745 -0.71044,0 -0.0286,-0.0286 0,-2.58085 0,-2.84175 0,-0.23681 0,-0.47362 0,-0.71043 0,-0.23682 -0.23681,-0.71044 0,-0.71044 0.23682,0 0,0.94725 0,0.71044 0,-0.71044 0,-1.42088 0,-2.13132 0,-1.18406 0,-2.36812 0,-3.55218 0,-0.23681 -0.16745,-0.54299 0,-0.71044 0.16746,-0.16745 0.54299,0.16745 0.71044,0 0.35522,-0.35522 -0.35522,-1.77609 0,-2.13131 0.16745,-0.16745 0.54299,0.16745 0.71044,0 0.16745,-0.16745 -0.16745,-0.54298 0,-0.71044 0.16745,-0.16745 0.54298,0.16746 0.71043,0 0.33491,-0.3349 -0.3349,-1.08597 0,-1.42087 0.16746,-0.16745 0.54299,0.16745 0.71044,0 0.3349,-0.3349 -0.47362,-1.42087 0,-1.42087 0.23681,0 -0.23681,0.71043 0,0.71043 0.22908,0 1.02613,-1.2235 1.42088,-1.42087 0.42362,-0.21181 1.08597,0.3349 1.42087,0 0.16745,-0.16745 -0.16745,-0.54299 0,-0.71044 0.16745,-0.16745 0.54298,0.16745 0.71044,0 0.16745,-0.16745 -0.16746,-0.54298 0,-0.71043 0.16745,-0.16746 0.54298,0.16745 0.71043,0 0.16746,-0.16746 -0.16745,-0.54299 0,-0.71044 0.17096,-0.17095 2.6708,0.17095 2.84175,0 0.16745,-0.16745 -0.16745,-0.54299 0,-0.71044 0.35522,-0.35522 1.77609,0.35522 2.13131,0 0.16745,-0.16745 -0.16745,-0.54298 0,-0.71043 0.35522,-0.35522 1.77609,0.35521 2.13131,0 0.16745,-0.16746 -0.16745,-0.54299 0,-0.71044 0.16745,-0.16745 0.47363,0 0.71044,0 0.23681,0 0.71044,-0.23681 0.71044,0 0,0.23681 -0.94725,0 -0.71044,0 1.42087,0 2.84175,0 4.26262,0 4.33599,0 4.56799,0 8.52525,0 0.23681,0 0.47362,0 0.71043,0 0.23681,0 0.54299,0.16745 0.71044,0 0.16745,-0.16745 -0.21181,-0.60453 0,-0.71044 0.45962,-0.22981 2.58655,0.2552 2.84175,0 0.94725,-0.94725 -1.18406,-0.71044 0.71043,-0.71044 0.47363,0 0.94725,0 1.42088,0 0.23681,0 0.71043,-0.23681 0.71043,0 0,0.23682 -0.47362,0 -0.71043,0 -0.71044,0 -1.42088,0 -2.13131,0 -1.65769,0 -3.31538,0 -4.97306,0 -1.18406,0 -2.36813,0 -3.55219,0 -0.23681,0 -0.47362,0 -0.71043,0 -0.23682,0 -0.49863,-0.1059 -0.71044,0 -0.29955,0.14978 -0.41089,0.56067 -0.71044,0.71044 -0.21621,0.10811 -1.81136,0 -2.13131,0 -1.8945,0 -3.789,0 -5.68349,0 -0.23682,0 -0.47363,0 -0.71044,0 -0.23681,0 -0.54299,0.16745 -0.71044,0 -0.16745,-0.16745 0.16745,-0.54298 0,-0.71044 -0.16745,-0.16745 -0.54298,0.16746 -0.71043,0 -0.0229,-0.0228 0,-1.95901 0,-2.13131 0,-0.23681 -0.23682,-0.71043 0,-0.71043 0.23681,0 0,0.94725 0,0.71043 0,-0.47362 0.21181,-0.99725 0,-1.42087 -0.10591,-0.21181 -0.54299,0.16745 -0.71044,0 -0.33491,-0.3349 0.3349,-1.08597 0,-1.42087 -0.16745,-0.16746 -0.54299,0.16745 -0.71044,0 -0.16745,-0.16746 0.16745,-0.54299 0,-0.71044 -0.2346,-0.23461 -1.18627,0.2346 -1.42087,0 -0.16745,-0.16745 0.16745,-0.54299 0,-0.71044 -0.16745,-0.16745 -0.54299,0.16745 -0.71044,0 -0.3349,-0.3349 0.3349,-1.08597 0,-1.42087 -0.2346,-0.23461 -1.18627,0.2346 -1.42087,0 -0.16746,-0.16745 0.16745,-0.54299 0,-0.71044 -0.16746,-0.16745 -0.49863,0.10591 -0.71044,0 -0.29955,-0.14977 -0.41089,-0.56066 -0.71044,-0.71044 -0.42362,-0.21181 -1.08597,0.33491 -1.42087,0 -0.16745,-0.16745 0.1059,-0.49862 0,-0.71043 -1.47834,-2.95667 0.049,0.75948 -1.42088,-0.71044 -0.16745,-0.16745 0.16746,-0.54299 0,-0.71044 -0.2346,-0.2346 -1.18626,0.23461 -1.42087,0 -0.16745,-0.16745 0.16745,-0.54298 0,-0.71043 -0.3349,-0.33491 -1.08597,0.3349 -1.42087,0 -0.33491,-0.33491 0.3349,-1.08597 0,-1.42088 -0.16745,-0.16745 -0.49863,0.10591 -0.71044,0 -2.95667,-1.47833 0.75948,0.049 -0.71044,-1.42087 -0.16745,-0.16745 -0.54298,0.16745 -0.71043,0 -0.16746,-0.16745 0.16745,-0.54299 0,-0.71044 -0.16746,-0.16745 -0.54299,0.16745 -0.71044,0 -0.3349,-0.3349 0.3349,-1.08597 0,-1.42087 -0.16745,-0.16745 -0.49863,0.1059 -0.71044,0 -0.29954,-0.14978 -0.41089,-0.56067 -0.71043,-0.71044 -0.21182,-0.1059 -0.54299,0.16745 -0.71044,0 -0.16745,-0.16745 0.16745,-0.54298 0,-0.71044 -0.16745,-0.16745 -0.49863,0.10591 -0.71044,0 -0.29955,-0.14977 -0.41089,-0.56066 -0.71044,-0.71043 -0.21181,-0.10591 -0.54298,0.16745 -0.71043,0 -0.16745,-0.16745 0.16745,-0.54299 0,-0.71044 -0.16745,-0.16745 -0.54299,0.16745 -0.71044,0 -0.16745,-0.16745 0.16745,-0.54299 0,-0.71044 -0.16745,-0.16745 -0.54299,0.16745 -0.71044,0 -0.16745,-0.16745 0.16745,-0.54298 0,-0.71043 -0.16745,-0.16746 -0.54298,0.16745 -0.71043,0 -0.16746,-0.16746 0.16745,-0.54299 0,-0.71044 -0.33491,-0.3349 -1.08598,0.3349 -1.42088,0 -0.16745,-0.16745 0.10591,-0.49863 0,-0.71044 -0.14977,-0.29954 -0.56066,-0.41089 -0.71044,-0.71043 -0.1059,-0.21182 0.16746,-0.54299 0,-0.71044 -1.46992,-1.46992 0.0575,2.24623 -1.42087,-0.71044 0,-1.8945 0.23681,0.23681 -0.71044,-0.71044 -0.16745,-0.16745 0.16745,-0.54298 0,-0.71043 -0.16745,-0.16745 -0.54298,0.16745 -0.71043,0 -0.16746,-0.16745 0.16745,-0.54299 0,-0.71044 -0.33491,-0.3349 -1.08597,0.3349 -1.42088,0 -0.16745,-0.16745 -0.23681,-0.71044 0,-0.71044 0.23681,0 0.16745,0.87789 0,0.71044 -0.23681,-0.47362 -0.47362,-0.94725 -0.71043,-1.42087 -0.23682,0 -0.54299,0.16745 -0.71044,0 -0.16745,-0.16746 0,-0.47363 0,-0.71044 0,-0.1723 -0.0228,-2.10846 0,-2.13131 0.16745,-0.16745 0.47362,0 0.71044,0 0.23681,0 0.47362,0 0.71043,0 0.50356,0 4.07894,-0.0918 4.26262,0 1.75578,0.87789 -0.24522,0.71044 1.42088,0.71044 1.8945,0 -0.23681,-0.23682 0.71044,0.71043 0.17095,0.17096 2.67079,-0.17095 2.84174,0 0.16746,0.16745 -0.16745,0.54299 0,0.71044 0.17096,0.17095 2.6708,-0.17095 2.84175,0 0.16745,0.16745 -0.16745,0.54298 0,0.71044 0.0322,0.0322 3.21722,0 3.55219,0 0.23681,0 0.94725,0 0.71043,0 -0.47362,0 -1.89449,0 -1.42087,0 1.65769,0 3.31537,0 4.97306,0 0.31995,0 1.9151,0.1081 2.13131,0 0.29955,-0.14978 0.41089,-0.56067 0.71044,-0.71044 0.18933,-0.0947 3.94122,0 4.26262,0 0.23681,0 0.47362,0 0.71044,0 0.23681,0 0.54298,0.16745 0.71043,0 0.16745,-0.16745 -0.16745,-0.54299 0,-0.71044 0.33491,-0.3349 0.99725,0.21181 1.42088,0 0.29954,-0.14977 0.41089,-0.56066 0.71043,-0.71043 0.56835,-0.28418 1.56296,0.28417 2.13131,0 0.29955,-0.14978 0.43178,-0.52467 0.71044,-0.71044 1.14893,-0.76595 2.36812,-1.42088 3.55219,-2.13131 z"
       id="path3007"
       inkscape:connector-curvature="0" />
  </g>
  <g
     inkscape:groupmode="layer"
     id="layer2"
     inkscape:label="Layer2"
     transform="translate(-144.6117,-557.4242)">
    <path
       style="fill:none;stroke:#6f6c6c;stroke-width:6.4000001;stroke-linecap:butt;stroke-linejoin:miter;stroke-miterlimit:4;stroke-opacity:1;stroke-dasharray:none"
       d="m 262.15123,625.38957 c 3.44841,-3.44201 0.98759,1.6411 0.65899,-0.3303 7.74966,-3.70454 3.41184,-14.89794 -4.58478,-13.85347 -7.19663,-1.69838 -12.63328,2.12923 -16.70475,7.75767 -6.36035,2.92512 -6.01018,8.05717 -9.31327,13.29692 -9.26933,13.47007 -18.27533,27.24172 -25.1807,42.09956 -3.08618,8.38991 -7.12591,16.35301 -11.92002,23.88954 -0.62832,6.14703 -8.29915,11.35484 -5.63783,17.44189 5.69917,3.4381 11.19058,7.45958 17.31532,10.31122 5.66764,2.9716 11.72549,5.13608 17.40056,8.09 10.87648,4.56864 22.2735,7.57627 33.56873,10.82035 4.73077,1.55009 9.52751,3.30393 14.56792,3.34112 5.62729,3.06406 12.84459,3.47327 18.86721,1.41831 7.9529,-1.17796 9.83685,-31.40408 2.06596,-29.74132 -4.45516,-0.70745 -21.35059,-7.59541 -27.00267,-5.58163 -12.46225,4.07129 -13.65428,9.12444 -1.25892,20.44743"
       id="path3778"
       inkscape:connector-curvature="0"
       sodipodi:nodetypes="cccccccccccccccc" />
    <path
       style="fill:none;stroke:#dc143c;stroke-width:6.5;stroke-linecap:butt;stroke-linejoin:miter;stroke-miterlimit:4;stroke-opacity:1;stroke-dasharray:none"
       d="m 385.41205,593.41991 c 9.12819,0.81379 8.45895,-10.96196 2.92209,-19.72226 -3.74362,-12.57659 -20.20475,-11.57482 -21.28441,-12.353 -6.74717,-1.23599 -16.36633,1.02547 -23.4875,2.4019 -9.11196,-0.46865 -16.3344,2.41219 -24.44949,5.59103 -9.43701,2.5869 -18.64883,7.29543 -26.51598,10.82563 -7.01887,5.08899 -16.86562,7.96134 -19.77108,16.89017 -5.22195,8.76032 -0.40176,18.58338 4.41992,26.23945 4.79178,9.58863 16.2878,11.78109 25.92262,13.46374 8.56077,0.65341 17.17817,0.84392 25.8004,0.71044 6.65047,-0.63634 13.33152,-0.93872 20.18969,-0.71119 8.48867,-0.61349 16.80987,2.1139 24.73099,4.78765 7.03913,3.63745 14.66675,5.85332 20.90894,10.98667 6.62447,4.96883 14.2567,9.77762 16.54476,18.3274 6.91134,6.67202 9.91531,16.95829 11.55028,26.15062 1.63168,8.32962 1.98834,16.74765 2.32186,25.18368 0.14875,6.97622 1.55001,14.74395 -1.03348,21.3341 -4.40056,12.38327 -15.70126,20.77138 -27.86746,24.58473 -11.40441,4.45443 -23.80302,4.74427 -35.95153,4.33941 -11.47788,1.30689 -24.64166,-0.65484 -36.0178,-0.92346 -8.18989,-1.59788 -15.3859,-6.71198 -18.7571,-14.98372 -5.22519,-6.69751 -0.5423,-21.46696 9.56516,-18.91032 9.4223,-0.0229 13.77639,14.5902 2.5087,16.27823 l -0.0641,0.51826 -0.0322,0.26007"
       id="path3780"
       inkscape:connector-curvature="0"
       sodipodi:nodetypes="ccccccccccccccccccccccccc" />
    <path
       style="fill:none;stroke:#686868;stroke-width:6.4000001;stroke-linecap:butt;stroke-linejoin:miter;stroke-miterlimit:4;stroke-opacity:1;stroke-dasharray:none"
       d="m 532.82771,660.20098 c -3.65991,5.30158 -0.83047,15.10176 5.87531,13.42524 5.75372,1.69437 16.50489,6.93391 17.74424,-2.44213 2.19047,-6.04005 -2.86303,-11.18066 -4.69794,-16.52185 -3.40191,-6.01161 -10.14518,-9.43709 -13.72436,-15.35069 -4.19237,-4.48072 -6.9057,-10.6363 -12.55362,-14.10287 -6.62467,-2.45742 -9.17509,-8.68684 -14.99846,-12.31897 -3.14856,-5.03266 -9.85857,-8.48392 -13.33618,-13.55076 -4.39992,-4.82952 -10.24579,-7.46743 -15.42331,-11.52263 -4.73656,-5.213 -12.38382,-5.87111 -17.18329,-10.99414 -5.21849,-2.99529 -10.49224,-6.05143 -16.27708,-7.26665 -5.86658,-3.44965 -13.34755,-5.50547 -19.70936,-8.71915 -6.5443,-0.457 -13.12281,0.45463 -17.46224,5.35238 -5.56183,5.05398 -5.25042,11.82892 -6.48758,18.70591 -2.45537,7.74227 4.73682,14.91954 12.00131,15.99658 7.35409,2.75922 13.3577,-3.65236 13.81065,-10.75722 0.55202,-1.73387 -0.15158,-3.62643 0.11899,-5.23936"
       id="path3782"
       inkscape:connector-curvature="0" />
    <path
       style="fill:none;stroke:#67686b;stroke-width:6.4000001;stroke-linecap:butt;stroke-linejoin:miter;stroke-miterlimit:4;stroke-opacity:1;stroke-dasharray:none"
       d="m 492.3328,593.4199 c 2.9964,5.14456 2.88859,13.3869 2.13131,20.18594 0.23458,8.20287 4.93545,15.62603 6.12254,23.81544 3.75017,7.43038 2.53146,16.27696 6.66533,23.49013 1.68584,8.22624 4.96996,15.91557 7.75566,23.65553 1.89515,7.75219 5.46487,14.93149 7.97078,22.44371 2.82153,6.31828 5.38969,13.15712 7.49773,19.55482 1.80067,6.53014 6.85445,17.63747 -1.10674,21.60541 -6.51267,4.00064 -13.64489,6.67146 -20.62339,9.78066 -12.57738,5.87804 -25.68873,10.98096 -39.28459,13.83153 -7.56899,0.27125 -10.37889,2.52677 -18.02619,2.10634 -16.47157,-2.05278 -29.2714,2.08421 -24.10742,-13.59903 -1.43845,-6.46237 11.58591,-19.07949 19.2078,-17.74151 5.513,1.74741 14.77058,3.54932 14.89317,8.58804"
       id="path3784"
       inkscape:connector-curvature="0"
       sodipodi:nodetypes="cccccccccccccc" />
  </g>
</svg>
